<svg width="220" height="153" viewBox="0 0 220 153" fill="none" xmlns="http://www.w3.org/2000/svg">
<g clip-path="url(#clip0_5_3)">
<rect y="34" width="220" height="119" rx="10" fill="black"/>
<path d="M116 115C114.361 118.525 110.914 121.129 106.96 121.414C103.005 121.699 99.6241 119.586 98.0807 116.29" stroke="black" stroke-width="2.5576" stroke-linecap="round"/>
<path d="M114.023 99.4441C112.702 100.58 97.2054 106.283 94.6599 102.021C90.8416 95.6271 103.764 81.309 106 76" stroke="black" stroke-width="2.5576" stroke-linecap="round"/>
<circle cx="90.5" cy="78.5" r="2.5" fill="black"/>
<circle cx="90.5" cy="78.5" r="2.5" fill="black"/>
<circle cx="117.5" cy="76.5" r="2.5" fill="black"/>
<circle cx="117.5" cy="76.5" r="2.5" fill="black"/>
<path d="M107.028 57.9956C106.051 60.1785 102.946 60.1612 101.994 57.9675L101.075 55.8491C99.972 53.3079 96.3084 53.4917 95.4652 56.1305L93.9283 60.9409C93.2492 63.0663 90.5703 63.733 88.9742 62.1739L85.9019 59.1725C83.7212 57.0422 80.1218 59.1451 80.9067 62.0909L82.6861 68.7695C83.0813 70.2525 82.2934 71.7947 80.8601 72.3435L75.5537 74.3754C72.8281 75.4191 73.0467 79.3457 75.8713 80.0804L77.2539 80.4401C79.887 81.125 80.3218 84.6799 77.9314 85.9793L71.0115 89.7406C68.6698 91.0134 69.0267 94.4797 71.5785 95.2487L72.9567 95.6641C75.0108 96.2832 75.7701 98.7954 74.4028 100.449L68.9129 107.086C67.1694 109.194 68.9259 112.344 71.6357 111.97L76.1201 111.349C78.7797 110.982 80.5462 114.025 78.9076 116.152L76.5327 119.235C74.5083 121.862 77.6156 125.347 80.457 123.636L85.6252 120.523C87.3286 119.497 89.5407 120.382 90.0663 122.3L91.6893 128.221C92.4216 130.893 96.2584 130.75 96.7906 128.032C97.2225 125.825 100.05 125.15 101.431 126.924L103.581 129.683C105.019 131.528 107.976 130.512 107.976 128.173C107.976 126.005 110.58 124.9 112.14 126.406L115.47 129.622C117.653 131.729 121.208 129.562 120.436 126.628C119.72 123.905 122.795 121.727 125.078 123.375L127.688 125.257C130.181 127.057 133.445 124.386 132.175 121.586L131.102 119.219C130.025 116.845 132.281 114.321 134.761 115.127L138.573 116.366C141.581 117.343 143.817 113.553 141.507 111.392C139.665 109.669 140.686 106.579 143.192 106.293L147.441 105.808C150.265 105.486 151.099 101.782 148.685 100.28L147.186 99.3479C145.468 98.279 145.275 95.8458 146.757 94.4675C148.274 93.0559 149.953 91.4075 150.75 90.3321C151.152 89.7887 151.007 89.1034 150.462 88.7021C149.145 87.7311 146.984 87.0842 144.826 86.6559C142.252 86.145 141.011 82.8265 142.873 80.9778L145.642 78.2291C147.737 76.1492 145.884 72.6116 142.981 73.1504L138.971 73.8948C136.138 74.4206 134.265 71.0391 136.213 68.9165L136.83 68.244C138.778 66.1216 136.906 62.7404 134.073 63.2655L129.695 64.0771C128.13 64.3672 126.611 63.3847 126.234 61.8385L125.824 60.1614C125.11 57.2311 120.661 56.9738 119.04 59.5174C117.889 61.3234 116.625 62.6604 115.405 62.6604C114.656 62.6604 114.263 61.5993 114.115 59.9004C113.832 56.6404 108.364 55.0085 107.028 57.9956Z" fill="#FEC684"/>
<path d="M115.018 110.836C113.648 113.673 110.765 115.768 107.457 115.997C104.15 116.226 101.322 114.526 100.031 111.874" stroke="black" stroke-width="2.5576" stroke-linecap="round"/>
<path d="M113.365 98.3183C112.26 99.2327 99.2991 103.821 97.1701 100.392C93.9766 95.2468 104.784 83.7252 106.655 79.4531" stroke="black" stroke-width="2.5576" stroke-linecap="round"/>
<circle cx="94" cy="81" r="2" fill="black"/>
<circle cx="94" cy="81" r="2" fill="black"/>
<circle cx="116" cy="80" r="2" fill="black"/>
<circle cx="116" cy="80" r="2" fill="black"/>
<path d="M0 45.5H220" stroke="white"/>
<circle cx="11" cy="40" r="2" fill="black"/>
<circle cx="11" cy="40" r="2" fill="white"/>
<circle cx="38" cy="40" r="2" fill="black"/>
<circle cx="38" cy="40" r="2" fill="white"/>
<circle cx="20" cy="40" r="2" fill="black"/>
<circle cx="20" cy="40" r="2" fill="#FEC684"/>
<circle cx="29" cy="40" r="2" fill="black"/>
<circle cx="29" cy="40" r="2" fill="white"/>
<path d="M39.1027 25.433C39.103 25.5372 39.0641 25.6089 38.9861 25.6482C38.9211 25.6874 38.9083 25.7786 38.9478 25.9217C38.8437 25.9351 38.7527 25.9874 38.6748 26.0788C38.597 26.1701 38.5059 26.216 38.4018 26.2162C38.3367 26.2164 38.2845 26.184 38.2452 26.119C38.2195 26.2103 38.1676 26.2755 38.0895 26.3148C38.0246 26.354 37.953 26.3868 37.875 26.413C37.7969 26.4393 37.7189 26.4721 37.6409 26.5114C37.5629 26.5506 37.5109 26.6094 37.4851 26.6876L37.3875 26.6879C37.2312 26.6883 37.1077 26.7538 37.0169 26.8842C36.9392 27.0146 36.8417 27.08 36.7245 27.0804C36.6855 27.0805 36.6594 27.074 36.6463 27.061C36.5813 27.0743 36.5553 27.1134 36.5685 27.1785C36.5818 27.2565 36.5624 27.3087 36.5104 27.3349L36.4127 27.3351C36.0742 27.3361 35.7293 27.4087 35.3782 27.5529C35.027 27.6971 34.6694 27.8609 34.3053 28.0442C33.9543 28.2275 33.5902 28.3978 33.213 28.5551C32.8489 28.7254 32.4782 28.8371 32.1007 28.8903C32.0228 28.9686 31.9253 29.0275 31.8082 29.0669C31.7042 29.1193 31.5871 29.1587 31.457 29.1851C31.3269 29.2115 31.1967 29.2379 31.0666 29.2643C30.9495 29.3037 30.8455 29.3626 30.7546 29.441C30.4291 29.4679 30.1038 29.5274 29.7785 29.6195C29.4533 29.7116 29.128 29.7971 28.8027 29.8762C28.4904 29.9682 28.1651 30.0407 27.8267 30.0938C27.5014 30.1598 27.1694 30.1802 26.8308 30.1552C26.7269 30.2336 26.6098 30.2925 26.4797 30.3319C26.3627 30.3843 26.2522 30.4498 26.1483 30.5282C25.6142 30.4516 25.0802 30.3945 24.5462 30.3569C24.0253 30.3193 23.5107 30.2296 23.0025 30.0878C23.0024 30.0488 22.9893 30.0228 22.9632 30.0098C22.9371 29.9969 22.9045 29.9839 22.8654 29.971C22.8394 29.9711 22.8133 29.9582 22.7872 29.9322C22.7611 29.9192 22.761 29.8867 22.7869 29.8345C22.6698 29.8739 22.5657 29.8938 22.4746 29.894C22.3444 29.8944 22.2141 29.8622 22.0837 29.7975C21.9663 29.7327 21.8359 29.6614 21.6925 29.5837C21.562 29.506 21.4251 29.4282 21.2816 29.3505C21.1382 29.2858 20.9819 29.2537 20.8126 29.2542C20.7082 29.1503 20.6102 29.0464 20.5188 28.9425C20.4403 28.8385 20.3814 28.7085 20.3419 28.5524C20.2898 28.5395 20.2312 28.5397 20.1661 28.5529C20.1141 28.566 20.0685 28.5727 20.0294 28.5728C19.9513 28.573 19.9122 28.5471 19.912 28.495C19.638 28.3004 19.4421 28.0927 19.3243 27.8716C19.2065 27.6506 19.0756 27.3971 18.9316 27.111C18.8922 27.02 18.8399 26.942 18.7746 26.8771C18.7224 26.8252 18.6832 26.7602 18.6569 26.6821C18.6045 26.5521 18.5715 26.4154 18.5581 26.2722C18.5447 26.129 18.5313 25.9924 18.5179 25.8622C18.5175 25.719 18.4976 25.5823 18.4581 25.4522C18.4317 25.309 18.3727 25.179 18.2812 25.0621C18.3059 24.5672 18.3566 24.0723 18.4333 23.5773C18.5231 23.0822 18.6323 22.5871 18.7611 22.092C18.8126 21.8705 18.8706 21.6554 18.9351 21.4469C18.9996 21.2384 19.0576 21.0234 19.1091 20.8019C19.1219 20.7237 19.1413 20.6716 19.1672 20.6455C19.2062 20.6063 19.2387 20.5802 19.2647 20.5671L19.3426 20.5083C19.3686 20.4822 19.388 20.443 19.4009 20.3909L19.5553 19.7264C19.6582 19.2964 19.7938 18.8794 19.9619 18.4753C20.13 18.0712 20.3568 17.6994 20.6423 17.3601C20.6675 17.0345 20.7382 16.7283 20.8546 16.4415C20.984 16.1417 21.1264 15.8548 21.2819 15.5809C21.4373 15.294 21.5928 15.0136 21.7482 14.7397C21.9037 14.4659 22.0266 14.1726 22.1168 13.8598L22.0972 13.8208C22.0971 13.7687 22.123 13.7426 22.1751 13.7424C22.2402 13.7292 22.2857 13.7226 22.3118 13.7225C22.3242 13.5142 22.3693 13.3383 22.447 13.1948C22.5377 13.0383 22.6284 12.8948 22.7192 12.7643C22.823 12.6338 22.9138 12.4969 22.9915 12.3534C23.0822 12.1969 23.1338 12.0145 23.1462 11.8061C23.3932 11.6622 23.601 11.4858 23.7697 11.277C23.9514 11.0551 24.12 10.8333 24.2757 10.6115C24.4443 10.3767 24.6194 10.1548 24.8011 9.94596C24.9828 9.72409 25.2036 9.54769 25.4637 9.41675C25.5286 9.33844 25.5478 9.22771 25.5214 9.08455C25.9241 8.78393 26.3401 8.51583 26.7691 8.28025C27.1981 8.04466 27.601 7.77008 27.9777 7.45652L28.6808 7.45454C28.8497 7.32385 29.0383 7.25821 29.2467 7.25763C29.4029 7.25718 29.5528 7.28931 29.6962 7.35401C29.8526 7.41868 29.9961 7.4964 30.1265 7.58718C30.27 7.6649 30.4134 7.74913 30.5569 7.83987C30.7004 7.91759 30.8438 7.97578 30.9871 8.01444C31.1309 8.20934 31.2292 8.43693 31.282 8.6972C31.3478 8.94441 31.4136 9.1786 31.4793 9.39977C31.3631 9.75166 31.2925 10.1164 31.2675 10.4941C31.2425 10.8588 31.198 11.2235 31.1339 11.5883C31.0431 11.6927 30.9653 11.8101 30.9005 11.9405C30.8358 12.0578 30.7645 12.1817 30.6867 12.3122C30.622 12.4295 30.5507 12.5469 30.4729 12.6643C30.395 12.7687 30.2911 12.8537 30.1611 12.9191C30.058 13.297 29.8961 13.597 29.6754 13.8189C29.4546 14.0409 29.2405 14.3019 29.033 14.602C28.8381 14.7328 28.6299 14.7985 28.4086 14.7991C28.2263 14.7996 28.0634 14.761 27.92 14.6833C27.7765 14.5925 27.646 14.4822 27.5284 14.3523C27.4108 14.2094 27.3127 14.06 27.2342 13.904C27.1686 13.7349 27.116 13.5723 27.0765 13.4161C27.1669 13.1424 27.3095 12.9076 27.5042 12.7118C27.712 12.5159 27.9198 12.32 28.1276 12.1241C28.3354 11.9282 28.5171 11.7193 28.6727 11.4975C28.8283 11.2757 28.9057 11.0086 28.9048 10.6961C28.9047 10.6701 28.8982 10.644 28.8851 10.618C28.885 10.592 28.8849 10.566 28.8848 10.5399C28.8847 10.4878 28.9041 10.4422 28.9431 10.403C28.982 10.3639 29.021 10.3312 29.06 10.305L29.1769 10.2071C29.2158 10.1679 29.2352 10.1223 29.2351 10.0702C29.2349 10.0181 29.2087 9.96608 29.1565 9.91414C28.6618 9.9546 28.2845 10.0403 28.0244 10.1712C27.7774 10.3021 27.5825 10.4459 27.4397 10.6026C27.2969 10.7592 27.1671 10.9159 27.0504 11.0724C26.9466 11.216 26.7907 11.3206 26.5825 11.3863C26.5438 11.4905 26.4854 11.5818 26.4075 11.6602C26.3426 11.7255 26.2712 11.7973 26.1933 11.8756C26.1153 11.941 26.044 12.0193 25.9791 12.1106C25.9273 12.2019 25.895 12.3127 25.8824 12.4429L25.5308 12.4439C25.4791 12.5612 25.4013 12.6787 25.2974 12.7961C25.2066 12.9006 25.1092 13.005 25.0054 13.1095C24.9145 13.2139 24.8302 13.3313 24.7524 13.4617C24.6877 13.5791 24.6685 13.7094 24.695 13.8525C24.5519 13.905 24.4414 13.99 24.3636 14.1074C24.2989 14.2247 24.2015 14.3227 24.0715 14.4012L24.0718 14.5183C24.0721 14.6225 24.0529 14.7202 24.0141 14.8115C23.9753 14.9027 23.969 15.0004 23.9954 15.1045C23.8395 15.2482 23.7228 15.4308 23.6453 15.6524C23.5808 15.8609 23.5098 16.0564 23.4322 16.2389C23.2501 16.3306 23.1268 16.4546 23.0621 16.6111C22.9974 16.7675 22.9654 16.9499 22.966 17.1582C22.7712 17.3541 22.5961 17.5824 22.4406 17.8433C22.2851 18.1041 22.1426 18.3715 22.0132 18.6453C21.8967 18.919 21.7869 19.1993 21.6835 19.486C21.5801 19.7728 21.4702 20.04 21.3537 20.2878L21.3553 20.8542C21.1736 21.063 21.0441 21.3108 20.9668 21.5975C20.9025 21.8711 20.799 22.1188 20.6564 22.3405C20.6308 22.4838 20.6181 22.6271 20.6185 22.7703C20.632 22.9135 20.6389 23.0567 20.6393 23.1999C20.6397 23.3562 20.6272 23.519 20.6016 23.6883C20.576 23.8577 20.5309 24.0141 20.4662 24.1575C20.5188 24.3526 20.5586 24.5869 20.5854 24.8603C20.6121 25.1206 20.6585 25.3874 20.7243 25.6607C20.7902 25.9209 20.882 26.1615 20.9998 26.3825C21.1176 26.5905 21.2873 26.7333 21.5088 26.8108C21.5617 27.0971 21.686 27.3116 21.8818 27.4543C22.0905 27.6099 22.3253 27.733 22.5859 27.8234C22.8466 27.9138 23.1137 27.9912 23.3874 28.0555C23.661 28.1328 23.9022 28.2298 24.1108 28.3464C24.1889 28.3071 24.28 28.2873 24.3841 28.2871C24.4883 28.2868 24.5795 28.2995 24.6577 28.3253C24.7489 28.3511 24.8466 28.3769 24.9509 28.4026C25.1331 28.3761 25.3544 28.3624 25.6148 28.3617C25.8882 28.3609 26.1616 28.3471 26.435 28.3203C26.7084 28.3065 26.9622 28.2733 27.1964 28.2205C27.4307 28.1678 27.6192 28.0696 27.762 27.926C27.8532 27.9257 27.9118 27.9516 27.938 28.0036C27.9772 28.0556 28.0424 28.0814 28.1336 28.0812C28.2247 28.0809 28.3613 28.0545 28.5435 28.0019C28.7257 27.9623 28.9143 27.9097 29.1095 27.844C29.3046 27.7914 29.4867 27.7323 29.6558 27.6667C29.8379 27.6011 29.968 27.5421 30.046 27.4898C30.0851 27.5027 30.1241 27.5091 30.1632 27.509L30.2999 27.5086C30.4822 27.5081 30.6514 27.4751 30.8074 27.4096C30.9635 27.344 31.1327 27.324 31.3151 27.3495C31.9132 27.0484 32.5179 26.7862 33.1293 26.5632C33.7537 26.3531 34.3847 26.1625 35.0222 25.9914C35.1 25.874 35.1909 25.7891 35.2949 25.7367C35.412 25.6843 35.5356 25.6449 35.6657 25.6185C35.7958 25.5791 35.9259 25.5527 36.0561 25.5393C36.1862 25.5129 36.3098 25.48 36.4269 25.4406C36.5049 25.4013 36.5699 25.3555 36.6218 25.3033C36.6868 25.238 36.7647 25.1857 36.8558 25.1464C36.9468 25.1071 37.0444 25.0807 37.1485 25.0674C37.2657 25.0541 37.3763 25.0407 37.4804 25.0274C37.5976 25.0011 37.7016 24.9682 37.7927 24.9289C37.8967 24.8895 37.9812 24.8242 38.046 24.7329C38.2285 24.8105 38.4111 24.8946 38.5936 24.9852C38.7892 25.0758 38.9523 25.2056 39.083 25.3745L39.1027 25.433ZM50.6838 25.0878C50.6452 25.2702 50.561 25.4202 50.4312 25.5378C50.3143 25.6423 50.1713 25.7273 50.0022 25.7929C49.8331 25.8585 49.6574 25.9045 49.4752 25.9311C49.306 25.9446 49.1498 25.9515 49.0065 25.9519C48.9414 25.9521 48.8763 25.9523 48.8112 25.9525C48.7591 25.9396 48.7005 25.9333 48.6354 25.9335C48.5703 25.9336 48.5378 25.9663 48.538 26.0314C48.5382 26.0965 48.5058 26.1422 48.4407 26.1684C48.3756 26.1425 48.3104 26.1232 48.2453 26.1103C48.1801 26.0975 48.115 26.0912 48.0499 26.0914C47.9587 26.0916 47.8676 26.0984 47.7765 26.1117C47.6984 26.1249 47.6203 26.1316 47.5422 26.1319C47.438 26.1322 47.3599 26.1194 47.3077 26.0935C47.2686 26.0675 47.2294 26.0416 47.1903 26.0157C47.1642 25.9767 47.1315 25.9377 47.0923 25.8988C47.0662 25.8598 47.0205 25.8273 46.9553 25.8015C46.8641 25.7627 46.7859 25.7564 46.7209 25.7826C46.6689 25.8088 46.5841 25.77 46.4667 25.6661C46.31 25.5364 46.1729 25.3805 46.0552 25.1986C45.9505 25.0035 45.8457 24.802 45.741 24.594C45.6362 24.3859 45.525 24.1779 45.4072 23.9699C45.2894 23.7619 45.1522 23.58 44.9955 23.4242L44.8392 23.4246C44.6049 23.4253 44.4424 23.5234 44.3518 23.719C44.2866 23.6801 44.2213 23.6347 44.1561 23.5828C44.0908 23.5179 44.019 23.466 43.9408 23.4272C43.6416 23.5192 43.3293 23.5982 43.004 23.6642C42.6786 23.7302 42.3532 23.7637 42.0277 23.7646L41.7542 23.7654C41.6761 23.7656 41.5914 23.7528 41.5002 23.727C41.3702 23.7795 41.2532 23.8449 41.1492 23.9233C41.0452 23.9887 40.9281 24.0216 40.7979 24.022C40.7198 24.0222 40.6286 23.9964 40.5243 23.9446C40.4462 23.9448 40.4072 23.9775 40.4074 24.0426C40.4206 24.1077 40.3816 24.1403 40.2905 24.1406L40.1147 24.1411C39.9324 24.1416 39.7501 24.1486 39.5679 24.1622C39.3986 24.1757 39.2229 24.1827 39.0406 24.1832C38.7932 24.1839 38.5392 24.152 38.2786 24.0877C38.2136 24.1269 38.142 24.1467 38.0639 24.1469C38.0119 24.1731 37.973 24.2188 37.9471 24.2839C37.9212 24.3361 37.8953 24.3882 37.8694 24.4404C37.8435 24.4795 37.8045 24.5187 37.7526 24.5579C37.7136 24.5841 37.655 24.5907 37.5768 24.5779C37.5512 24.7343 37.4865 24.8581 37.3826 24.9496C37.2787 25.041 37.227 25.1779 37.2275 25.3602C37.0845 25.4387 36.9676 25.5367 36.8767 25.6541C36.7859 25.7716 36.6951 25.8955 36.6044 26.026C36.5136 26.1565 36.4163 26.2804 36.3124 26.3979C36.2216 26.5154 36.1047 26.6068 35.9616 26.6724C35.8968 26.7507 35.8776 26.8744 35.9041 27.0436C35.7612 27.1612 35.5857 27.2659 35.3776 27.3576C35.1696 27.4493 34.9744 27.4955 34.7921 27.496C34.4145 27.497 34.1535 27.2959 34.0091 26.8927C34.0088 26.7625 34.0214 26.6257 34.047 26.4824C34.0596 26.3262 34.0853 26.1829 34.1239 26.0525C34.1626 25.9092 34.2208 25.7853 34.2987 25.6809C34.3765 25.5635 34.4869 25.4786 34.63 25.4261C34.6297 25.3089 34.5904 25.2309 34.5121 25.1921C34.4339 25.1402 34.4011 25.0557 34.4138 24.9384C34.7649 24.7682 35.0702 24.546 35.3299 24.2718C35.5895 23.9976 35.8231 23.7105 36.0306 23.4104C36.251 23.0973 36.4715 22.7842 36.692 22.4711C36.9124 22.1579 37.1591 21.8773 37.4318 21.6291L37.4306 21.219C37.8201 20.8012 38.0727 20.3317 38.1884 19.8106C38.3315 19.7841 38.4225 19.7188 38.4613 19.6145C38.5131 19.5102 38.5388 19.3864 38.5383 19.2432C38.6035 19.243 38.6424 19.2168 38.6553 19.1647C38.6812 19.0995 38.7397 19.0798 38.8309 19.1056C38.9472 18.7928 39.0766 18.506 39.2191 18.2452C39.3616 17.9843 39.5041 17.7235 39.6466 17.4627C39.7891 17.1889 39.912 16.9086 40.0153 16.6218C40.1317 16.335 40.2154 16.0158 40.2665 15.6641C40.4488 15.6505 40.5462 15.5656 40.5588 15.4093C40.5844 15.24 40.61 15.0902 40.6356 14.9599C40.8304 14.7771 40.9731 14.5618 41.0635 14.3142C41.167 14.0665 41.2574 13.8123 41.3348 13.5517C41.4122 13.278 41.496 13.0108 41.5864 12.7502C41.6898 12.4764 41.8324 12.2352 42.0141 12.0263L42.0139 11.9677C42.0137 11.9026 41.9876 11.8636 41.9355 11.8507C41.8833 11.8249 41.8571 11.7794 41.857 11.7143C41.8699 11.7012 41.8764 11.6882 41.8764 11.6751C42.0324 11.6096 42.1493 11.5051 42.2271 11.3616C42.3047 11.2052 42.4216 11.0942 42.5777 11.0286C42.8517 11.2492 43.093 11.3852 43.3015 11.4367C43.5099 11.4752 43.7835 11.507 44.1221 11.5321C44.2919 11.7139 44.3836 11.935 44.3974 12.1954C44.4241 12.4427 44.4704 12.69 44.5362 12.9372C44.6415 13.3535 44.7534 13.7634 44.8717 14.1667C45.003 14.5569 45.1018 14.9603 45.1681 15.3768C45.2078 15.6241 45.2801 15.8583 45.3849 16.0793C45.4897 16.3004 45.562 16.528 45.6017 16.7623C45.6282 16.9445 45.6288 17.1529 45.6035 17.3873C45.578 17.6087 45.6046 17.804 45.6832 17.973L45.8208 18.2851C45.8863 18.4282 45.9388 18.5778 45.9783 18.7339C46.0309 18.89 46.0769 19.0461 46.1164 19.2023C46.2217 19.5926 46.314 20.0155 46.3934 20.471C46.4858 20.9135 46.6237 21.3167 46.807 21.6808C46.8724 21.8108 46.9704 21.9017 47.1007 21.9534C47.2441 22.0051 47.4005 22.0437 47.5698 22.0693C47.7391 22.0818 47.9019 22.0879 48.0581 22.0874C48.2274 22.0739 48.3706 22.067 48.4878 22.0667L48.6831 22.0661C48.7612 22.0659 48.8394 22.0787 48.9176 22.1045C48.9699 22.2085 48.9962 22.2996 48.9965 22.3777C48.9969 22.534 48.9452 22.6578 48.8412 22.7493C48.7373 22.8407 48.6856 22.945 48.6859 23.0622C48.6861 23.1273 48.7123 23.1989 48.7646 23.2768C48.7125 23.264 48.6343 23.2577 48.5302 23.258C48.2307 23.2588 47.9379 23.3117 47.6517 23.4167C47.7565 23.6378 47.8938 23.8262 48.0635 23.9819C48.2462 24.1247 48.4354 24.2608 48.631 24.3905C48.7609 24.286 48.8975 24.2335 49.0407 24.2331C49.197 24.2327 49.3403 24.2713 49.4708 24.3491C49.6142 24.4138 49.764 24.4459 49.9203 24.4455C50.0374 24.4451 50.122 24.4254 50.174 24.3861C50.2785 24.503 50.3635 24.6265 50.4289 24.7565C50.4944 24.8735 50.5793 24.984 50.6838 25.0878ZM44.5617 21.9801C44.5351 21.7588 44.489 21.6027 44.4237 21.5117C44.3713 21.4077 44.3254 21.2841 44.2859 21.141C44.2333 20.9589 44.1937 20.7637 44.1671 20.5554C44.1535 20.3471 44.1269 20.1454 44.0872 19.9502C43.9948 19.5077 43.8894 19.0653 43.771 18.6229C43.6656 18.1805 43.5276 17.7512 43.3572 17.335C43.4091 17.2568 43.4349 17.1851 43.4347 17.12L43.4346 17.0614C43.317 16.9315 43.2319 16.7755 43.1793 16.5934C43.1267 16.3982 43.0741 16.2095 43.0215 16.0274C42.9819 15.8322 42.9228 15.6566 42.8442 15.5005C42.7786 15.3315 42.6676 15.1951 42.511 15.0913C42.4722 15.1696 42.4529 15.2608 42.4532 15.3649C42.4535 15.4561 42.4602 15.5407 42.4734 15.6188C42.4997 15.6968 42.513 15.7814 42.5132 15.8726C42.3832 15.938 42.2858 16.0425 42.2211 16.1859C42.1694 16.3163 42.0786 16.4207 41.9486 16.4992C41.8456 16.9161 41.697 17.3137 41.5027 17.6918C41.3084 18.057 41.1011 18.4221 40.8808 18.7873C40.6735 19.1525 40.4727 19.5242 40.2785 19.9023C40.0842 20.2675 39.929 20.652 39.813 21.056C39.6441 21.1737 39.5273 21.3237 39.4627 21.5062C39.4111 21.6886 39.3856 21.871 39.3861 22.0533C39.5035 22.1181 39.6338 22.1568 39.7771 22.1694C39.9333 22.1689 40.0831 22.1685 40.2263 22.1681C40.3695 22.1677 40.5063 22.1803 40.6366 22.206C40.7668 22.2317 40.8842 22.2965 40.9887 22.4003C41.1578 22.3478 41.34 22.3147 41.5353 22.3011C41.7435 22.2745 41.9126 22.2154 42.0426 22.1239C42.3033 22.2143 42.5833 22.2591 42.8828 22.2583C43.0391 22.2578 43.1888 22.2444 43.3319 22.2179C43.4881 22.1915 43.6377 22.1585 43.7809 22.119C43.8981 22.1447 43.9894 22.19 44.0547 22.255C44.1199 22.3069 44.2176 22.3261 44.3478 22.3127C44.4128 22.2605 44.4517 22.2083 44.4646 22.1562C44.4774 22.091 44.5098 22.0323 44.5617 21.9801ZM75.1117 23.0463C75.0862 23.2416 75.015 23.3916 74.8981 23.4961C74.7943 23.6005 74.6709 23.6985 74.5279 23.7901C74.4627 23.7773 74.3976 23.7709 74.3325 23.7711C74.2804 23.7582 74.2218 23.7519 74.1567 23.7521C73.753 23.7402 73.369 23.7934 73.0048 23.9116C72.6536 24.0298 72.2892 24.1154 71.9118 24.1686C71.7816 24.195 71.658 24.2083 71.5408 24.2087C71.4366 24.1959 71.3259 24.2028 71.2088 24.2291C70.7923 24.2954 70.3498 24.3488 69.8811 24.3891C69.4125 24.4295 68.9439 24.4829 68.4753 24.5494C68.0067 24.6028 67.5447 24.6757 67.0892 24.7681C66.6467 24.8475 66.2304 24.9658 65.8402 25.1232C65.8011 25.0973 65.7619 25.0713 65.7228 25.0454C65.6836 25.0065 65.638 24.9871 65.5859 24.9872C65.4557 24.9876 65.3321 25.0074 65.215 25.0468C65.0979 25.0862 64.9808 25.0996 64.8635 25.0869C64.7335 25.1654 64.5905 25.2244 64.4343 25.2639C64.2912 25.2903 64.1415 25.3168 63.9853 25.3433C63.8422 25.3567 63.699 25.3831 63.5559 25.4226C63.4128 25.4621 63.2762 25.5341 63.1463 25.6386C63.042 25.5868 62.9117 25.5612 62.7555 25.5616C62.6122 25.549 62.5144 25.4972 62.4621 25.4062C62.163 25.5502 61.8443 25.6423 61.5058 25.6823C61.1804 25.7223 60.8484 25.7362 60.5098 25.7242C60.2885 25.7118 60.0345 25.6799 59.7479 25.6287C59.4613 25.5774 59.1746 25.5066 58.8879 25.4163C58.6011 25.3129 58.3339 25.1965 58.0861 25.067C57.8383 24.9244 57.649 24.7557 57.5183 24.5607C57.4268 24.4308 57.3612 24.2877 57.3217 24.1316C57.2822 23.9755 57.1908 23.8585 57.0473 23.7808C57.0855 23.4812 57.1303 23.1881 57.1816 22.9015C57.2328 22.6149 57.2841 22.3218 57.3353 22.0222C57.5951 21.8001 57.8418 21.565 58.0755 21.317C58.3092 21.0689 58.5298 20.8079 58.7374 20.5338C58.9844 20.416 59.2119 20.2721 59.4198 20.1022C59.6406 19.9323 59.855 19.7625 60.0629 19.5926C60.2837 19.4097 60.498 19.2333 60.7059 19.0634C60.9268 18.8935 61.1607 18.7431 61.4078 18.6122C61.4466 18.521 61.4984 18.4492 61.5634 18.397C61.6413 18.3316 61.7193 18.2728 61.7973 18.2205C61.8752 18.1552 61.9466 18.0899 62.0116 18.0246C62.0764 17.9463 62.1218 17.855 62.1475 17.7508C62.6025 17.4761 62.9986 17.1299 63.336 16.7123C63.6734 16.2946 63.8934 15.8253 63.9961 15.3041C63.7742 15.1225 63.52 15.006 63.2334 14.9547C62.9598 14.8904 62.6732 14.8456 62.3736 14.8204C62.1132 14.8082 61.8397 14.8089 61.5533 14.8228C61.2799 14.8365 60.9999 14.8308 60.7134 14.8056C60.4272 14.8975 60.1279 14.957 59.8155 14.9839C59.5161 15.0108 59.2167 15.0377 58.9173 15.0646C58.6178 15.0784 58.3185 15.1183 58.0192 15.1843C57.7328 15.2372 57.4532 15.3421 57.1802 15.4992C57.1281 15.4993 57.076 15.4929 57.0239 15.4801C56.9848 15.4672 56.9392 15.4608 56.8871 15.4609C56.4704 15.4491 56.08 15.5348 55.716 15.7181C55.3519 15.8884 54.9943 16.0587 54.6432 16.229C54.6173 16.2811 54.6044 16.3202 54.6045 16.3463C54.6047 16.4244 54.6179 16.5025 54.6442 16.5805C54.6834 16.6455 54.7032 16.7171 54.7034 16.7952C54.6904 16.8083 54.6839 16.8213 54.684 16.8343C54.684 16.8474 54.6775 16.8604 54.6645 16.8734C54.6517 16.9386 54.6323 16.9972 54.6064 17.0494C54.5936 17.1015 54.5742 17.1602 54.5483 17.2253C54.4063 17.6424 54.3293 18.0528 54.3174 18.4565C54.3054 18.795 54.3063 19.1271 54.3203 19.4526C54.3342 19.778 54.3351 20.1101 54.3231 20.4486C54.2982 20.8654 54.2342 21.2562 54.1311 21.6211C54.197 21.9334 54.2566 22.2652 54.3096 22.6167C54.3627 22.9551 54.4287 23.2934 54.5078 23.6317C54.5869 23.9701 54.679 24.3018 54.7841 24.627C54.9021 24.9392 55.0527 25.2383 55.2358 25.5242C55.2229 25.5503 55.2294 25.5698 55.2555 25.5828C55.2816 25.5957 55.3077 25.6021 55.3337 25.6021L55.4899 25.6016C55.5551 25.6014 55.5812 25.6274 55.5683 25.6795C55.5944 25.7185 55.6141 25.7575 55.6272 25.7966C55.6403 25.8226 55.6664 25.8485 55.7056 25.8745C55.7317 25.9134 55.7319 25.9655 55.706 26.0307C55.6937 26.2912 55.6293 26.5322 55.5127 26.7539C55.3962 26.9756 55.3252 27.2167 55.2999 27.4772C55.1438 27.5167 55.0006 27.5366 54.8704 27.537C54.649 27.5246 54.4535 27.46 54.2839 27.3433C54.1144 27.2396 53.9577 27.1099 53.8141 26.954C53.6704 26.7982 53.5332 26.6423 53.4026 26.4864C53.2719 26.3175 53.1283 26.1747 52.9717 26.0579C52.8795 25.6936 52.7872 25.2902 52.6948 24.8478C52.6155 24.4053 52.4777 24.0281 52.2815 23.7161C52.3332 23.5988 52.3589 23.4555 52.3584 23.2862C52.3707 23.0258 52.3439 22.7719 52.2781 22.5247C52.2253 22.2645 52.2116 22.0041 52.2369 21.7436C52.2365 21.6004 52.2491 21.4571 52.2747 21.3138C52.3134 21.1705 52.339 21.0272 52.3516 20.8839C52.364 20.6625 52.3374 20.4477 52.2717 20.2396C52.219 20.0314 52.1989 19.8166 52.2113 19.5952C52.224 19.491 52.2433 19.3933 52.269 19.3021C52.3078 19.1978 52.3596 19.1065 52.4245 19.0282C52.359 18.8721 52.339 18.7225 52.3647 18.5792C52.377 18.3578 52.4025 18.1494 52.441 17.9539C52.4795 17.7585 52.505 17.5631 52.5175 17.3678C52.5172 17.2636 52.5104 17.166 52.4971 17.0749C52.4838 16.9707 52.464 16.8731 52.4377 16.7821L52.2618 16.724C52.1836 16.7242 52.1056 16.7439 52.0276 16.7832C51.9626 16.8225 51.9041 16.8682 51.8522 16.9204C51.8002 16.9727 51.7548 17.0184 51.7158 17.0576C51.6768 17.0837 51.6378 17.0968 51.5987 17.0969C51.5727 17.097 51.5402 17.0971 51.5011 17.0972C51.475 17.0843 51.449 17.0778 51.4229 17.0779C51.3969 17.078 51.3449 17.1042 51.2669 17.1565C51.2019 17.2087 51.1175 17.2676 51.0135 17.333C50.9225 17.3853 50.8315 17.4442 50.7405 17.5095C50.6495 17.5619 50.578 17.5946 50.526 17.6078C50.3827 17.5821 50.2654 17.5369 50.174 17.4721C50.0957 17.3942 50.0173 17.3228 49.939 17.2579C49.8737 17.1799 49.8019 17.115 49.7236 17.0632C49.6453 16.9983 49.5476 16.9725 49.4305 16.9859C49.3912 16.9079 49.3714 16.8233 49.3711 16.7321C49.3579 16.641 49.3576 16.5499 49.3704 16.4587L49.3695 16.1462C49.4602 15.9767 49.5835 15.8396 49.7394 15.735C49.8823 15.6174 50.0383 15.5193 50.2074 15.4407L50.7145 15.2049C50.8836 15.1263 51.0395 15.0282 51.1824 14.9106L51.3582 14.9101C51.5926 14.9225 51.7943 14.8763 51.9633 14.7717C52.1453 14.667 52.3142 14.5493 52.4701 14.4187C52.6259 14.275 52.7818 14.1314 52.9376 13.9877C53.1065 13.844 53.2885 13.7328 53.4836 13.6541C53.627 13.7188 53.7769 13.777 53.9333 13.8286C54.0896 13.8672 54.2525 13.8928 54.4218 13.9054C54.5911 13.9049 54.7668 13.8784 54.9489 13.8258C55.1311 13.7732 55.274 13.6751 55.3778 13.5316C55.4429 13.5574 55.4951 13.5768 55.5342 13.5897C55.5863 13.5896 55.6449 13.5894 55.71 13.5892C55.9053 13.6017 56.1005 13.5751 56.2957 13.5095C56.4908 13.4308 56.6793 13.3391 56.8613 13.2344C57.1218 13.2467 57.3756 13.233 57.6229 13.1932C57.8832 13.1404 58.1369 13.0876 58.3842 13.0348C58.6445 12.982 58.8982 12.9357 59.1455 12.8959C59.4058 12.8431 59.6661 12.8229 59.9266 12.8351C60.3563 12.847 60.7794 12.8067 61.1958 12.7144C61.6122 12.6221 62.0353 12.5883 62.465 12.6131C62.7646 12.6253 63.0576 12.6505 63.3442 12.6888C63.6437 12.714 63.9432 12.7196 64.2427 12.7058C64.4122 12.7834 64.5621 12.8546 64.6925 12.9194C64.8359 12.971 65.0117 12.9836 65.2199 12.9569C65.6376 13.3073 66.0164 13.7164 66.3562 14.1842L66.3572 14.5162C66.345 14.8157 66.2937 15.1089 66.2034 15.3956C66.113 15.6823 66.0032 15.9691 65.8738 16.2559C65.7574 16.5296 65.6279 16.8035 65.4855 17.0773C65.343 17.3381 65.207 17.5989 65.0775 17.8597C64.2333 18.6303 63.3891 19.3944 62.5449 20.152C61.7007 20.9096 60.8304 21.6412 59.9339 22.3469C59.9082 22.4772 59.8695 22.5945 59.8177 22.6988C59.7789 22.8031 59.7532 22.9138 59.7405 23.031C59.7407 23.0961 59.7474 23.1482 59.7605 23.1872C59.8517 23.213 59.93 23.2649 59.9953 23.3428C60.0736 23.4077 60.0999 23.4988 60.0742 23.616L60.25 23.6155C60.3151 23.6153 60.3477 23.6413 60.3479 23.6934L60.6604 23.712C61.1553 23.7367 61.65 23.7223 62.1447 23.6688C62.6393 23.6153 63.1339 23.5553 63.6286 23.4888C64.1362 23.4223 64.6373 23.3623 65.132 23.3088C65.6266 23.2423 66.1212 23.2018 66.616 23.1874C66.7331 23.148 66.8567 23.1151 66.9868 23.0887C67.1169 23.0623 67.234 23.0099 67.3379 22.9315L67.3965 22.9313C67.4877 22.931 67.5528 22.9569 67.5921 23.0089C67.6443 23.0608 67.716 23.0932 67.8072 23.1059C67.8723 23.1057 67.9373 23.0925 68.0024 23.0663C68.0804 23.04 68.1585 23.0203 68.2366 23.0071C68.4187 22.9545 68.6074 22.9214 68.8027 22.9078C69.011 22.8942 69.2128 22.8741 69.408 22.8475C70.163 22.7803 70.9116 22.7391 71.6538 22.724C72.3959 22.6958 73.1378 22.5961 73.8795 22.4247C73.9449 22.5157 74.0362 22.5805 74.1535 22.6193C74.2707 22.645 74.3945 22.6772 74.5249 22.7159C74.6551 22.7415 74.7724 22.7738 74.8767 22.8125C74.994 22.8513 75.0723 22.9292 75.1117 23.0463ZM82.6722 16.7944C82.6726 16.9246 82.6273 17.0094 82.5362 17.0487C82.4452 17.088 82.3999 17.1663 82.4002 17.2835C82.4003 17.3225 82.4134 17.3551 82.4395 17.381C82.4656 17.407 82.4788 17.446 82.4789 17.4981L82.4791 17.5762C82.325 18.3319 82.099 18.9901 81.8011 19.5508C81.5162 20.1115 81.1791 20.6268 80.7898 21.0966C80.4005 21.5665 79.9591 22.0104 79.4655 22.4285C78.9849 22.8465 78.4653 23.2842 77.9067 23.7415C77.7508 23.8721 77.5884 24.0028 77.4195 24.1335C77.2636 24.2641 77.1143 24.4013 76.9714 24.5449L76.5429 24.9563C76.5299 24.9693 76.4584 25.0021 76.3283 25.0545C76.1982 25.094 76.1202 25.1202 76.0942 25.1333C75.9121 25.212 75.7171 25.3037 75.509 25.4084C75.314 25.5131 75.1451 25.6438 75.0023 25.8005C74.7419 25.8012 74.5206 25.8409 74.3386 25.9195C74.1565 25.9982 73.955 26.1029 73.734 26.2337C73.6689 26.2339 73.6103 26.2211 73.5581 26.1952C73.519 26.1692 73.4733 26.1433 73.4212 26.1174C73.369 26.0915 73.3104 26.0787 73.2453 26.0789C73.1932 26.066 73.1216 26.0727 73.0305 26.099C72.8735 25.839 72.7036 25.6182 72.5208 25.4364C72.338 25.2546 72.0903 25.1446 71.7777 25.1064C71.738 24.8852 71.6464 24.7162 71.5028 24.5994C71.3592 24.4696 71.2156 24.3333 71.072 24.1905C71.0457 24.1124 71.0259 24.0213 71.0126 23.9172C70.9993 23.8131 70.973 23.7155 70.9337 23.6244C70.8943 23.5334 70.842 23.4554 70.7767 23.3905C70.7115 23.3256 70.6202 23.2933 70.503 23.2936C70.4898 23.2155 70.5222 23.1764 70.6004 23.1762C70.6785 23.1759 70.7174 23.1433 70.7173 23.0782C70.717 23.0001 70.7038 22.922 70.6775 22.8439C70.6513 22.7659 70.638 22.6813 70.6378 22.5901C70.6376 22.525 70.6439 22.4664 70.6568 22.4143C70.6697 22.3622 70.689 22.3035 70.7149 22.2383C70.6748 21.8869 70.6543 21.5289 70.6533 21.1643C70.6513 20.4612 70.6949 19.7709 70.7841 19.0936C70.8864 18.4032 70.9365 17.7064 70.9345 17.0033C70.9336 16.6908 70.9132 16.3784 70.8733 16.066C70.8463 15.7536 70.7869 15.4477 70.6949 15.1485C70.3956 15.2145 70.0963 15.2934 69.7971 15.3854C69.4979 15.4644 69.2182 15.5759 68.9582 15.7198C68.8147 15.6291 68.6648 15.5774 68.5086 15.5649C68.3392 15.5393 68.1763 15.5007 68.0199 15.449C67.9283 15.267 67.8822 15.0783 67.8816 14.883C67.8811 14.7007 67.9132 14.5249 67.9778 14.3554L68.1717 13.847C68.484 13.7811 68.7962 13.6825 69.1083 13.5514C69.4075 13.4204 69.7131 13.3023 70.0253 13.1973C70.1294 13.1709 70.2595 13.138 70.4157 13.0985C70.5848 13.059 70.7019 13.0261 70.767 12.9999C70.858 12.9606 70.9164 12.8888 70.9421 12.7845C70.9809 12.6672 71.0327 12.5694 71.0976 12.4911L71.4296 12.4902C71.5077 12.49 71.5924 12.4962 71.6835 12.509C71.7747 12.5087 71.8594 12.528 71.9376 12.5669C72.406 12.4484 72.8746 12.3754 73.3433 12.3481C73.8119 12.3077 74.2935 12.2542 74.7881 12.1877C74.8402 12.1876 74.9183 12.1809 75.0224 12.1676L75.3543 12.108C75.4714 12.0817 75.5755 12.0618 75.6666 12.0485C75.7707 12.0222 75.8423 12.009 75.8814 12.0089C75.9204 12.0088 75.94 12.0282 75.9401 12.0673L76.2722 12.0664C76.832 12.0648 77.3791 12.1349 77.9134 12.2766L79.5161 12.7018C79.738 12.8834 79.9599 13.0586 80.1817 13.2272C80.4035 13.3959 80.6513 13.5449 80.9251 13.6743C80.9908 13.8825 81.089 14.0515 81.2195 14.1813C81.3631 14.2981 81.5197 14.4279 81.6894 14.5706C81.755 14.7397 81.8401 14.9218 81.9448 15.1168C82.0625 15.2987 82.1738 15.4872 82.2785 15.6823C82.3832 15.8773 82.4749 16.0723 82.5536 16.2674C82.6322 16.4495 82.6718 16.6252 82.6722 16.7944ZM80.8567 17.0925C80.7126 16.7934 80.575 16.4813 80.4439 16.1562C80.3127 15.831 80.1492 15.5385 79.9531 15.2787C79.7186 15.2142 79.4774 15.1368 79.2298 15.0463C78.9951 14.9428 78.8319 14.7675 78.74 14.5204C78.714 14.5334 78.6685 14.5401 78.6034 14.5403C78.4862 14.5406 78.3819 14.4953 78.2905 14.4044C78.1991 14.3135 78.0947 14.2552 77.9775 14.2295C77.8733 14.2168 77.73 14.1977 77.5476 14.1722C77.3783 14.1466 77.1959 14.1276 77.0006 14.1151C76.8052 14.1026 76.6099 14.0902 76.4145 14.0777C76.2322 14.0652 76.089 14.0591 75.9848 14.0594C75.8806 14.0597 75.77 14.0665 75.6528 14.0798C75.5487 14.0801 75.438 14.087 75.3209 14.1003C75.2167 14.1006 75.1516 14.1203 75.1257 14.1595C75.0997 14.1856 75.0477 14.2118 74.9697 14.238C74.9045 14.2122 74.8329 14.1993 74.7547 14.1996L74.5204 14.2002C74.2469 14.201 73.9736 14.2473 73.7004 14.3393C73.4402 14.4181 73.1801 14.5295 72.9201 14.6735L72.9203 14.7516C72.9206 14.8558 72.9664 14.9143 73.0576 14.927C73.1487 14.9398 73.201 14.9917 73.2142 15.0828C73.1491 15.083 73.0971 15.0897 73.0581 15.1028C73.019 15.1029 72.9996 15.1485 72.9998 15.2397C73.0002 15.3699 73.0136 15.5131 73.0401 15.6693C73.0796 15.8254 73.0996 15.9816 73.1 16.1378C73.1004 16.255 73.0877 16.3918 73.0621 16.5481C73.0365 16.7044 72.9718 16.8283 72.8679 16.9197C72.9984 17.0366 73.0639 17.1926 73.0645 17.3879C73.0649 17.5182 73.0392 17.6549 72.9875 17.7983C72.9359 17.9417 72.8711 18.0656 72.7933 18.17C72.7688 18.7169 72.7182 19.2704 72.6417 19.8306C72.5652 20.3907 72.5277 20.9442 72.5292 21.491C72.53 21.7645 72.5437 22.0314 72.5705 22.2917C72.6103 22.552 72.6696 22.8123 72.7485 23.0725C72.8921 23.2153 73.0422 23.3255 73.1987 23.4032C73.3682 23.4809 73.5442 23.5585 73.7267 23.6361L73.7268 23.6947C73.7269 23.7338 73.701 23.7729 73.649 23.8121C73.5971 23.8513 73.5712 23.9035 73.5714 23.9686C73.5715 24.0207 73.5976 24.0466 73.6497 24.0465C74.1961 23.8887 74.7099 23.6984 75.1911 23.4757C75.6722 23.253 76.1206 22.9523 76.5362 22.5735C76.5751 22.5343 76.6141 22.5147 76.6532 22.5146C76.6792 22.5145 76.7118 22.5209 76.7509 22.5338C76.803 22.5467 76.8486 22.5596 76.8877 22.5725L76.868 22.4944C76.8678 22.4163 76.8871 22.3446 76.926 22.2794C76.9779 22.2142 77.0363 22.1554 77.1013 22.1031L77.2961 21.9268C77.361 21.8615 77.4129 21.7963 77.4518 21.7311C77.5559 21.7047 77.6273 21.6524 77.6662 21.5742C77.718 21.4959 77.8026 21.4566 77.9197 21.4563C77.9454 21.313 78.0167 21.2086 78.1337 21.1432C78.2507 21.0647 78.322 20.9539 78.3476 20.8106C78.6076 20.6666 78.835 20.4902 79.0297 20.2813C79.2375 20.0724 79.4256 19.8505 79.5942 19.6156C79.7759 19.3807 79.9445 19.1394 80.1 18.8915C80.2555 18.6307 80.4176 18.3828 80.5862 18.148L80.586 18.0698C80.5854 17.8615 80.6175 17.6922 80.6822 17.5618C80.76 17.4313 80.8181 17.2749 80.8567 17.0925ZM112.382 31.3982C112.382 31.5153 112.337 31.6196 112.246 31.711C112.168 31.8024 112.07 31.8743 111.953 31.9267C111.836 31.9922 111.713 32.0511 111.583 32.1035C111.466 32.156 111.362 32.2018 111.271 32.2411C111.127 32.1634 110.977 32.1118 110.821 32.0862C110.678 32.0605 110.547 31.9958 110.43 31.892L110.293 31.8923C110.085 31.8929 109.922 31.9194 109.805 31.9718C109.623 31.9073 109.473 31.81 109.355 31.6801C109.237 31.5633 109.126 31.4334 109.022 31.2905C108.917 31.1605 108.813 31.0306 108.708 30.9007C108.604 30.7708 108.473 30.6605 108.317 30.5698C108.08 29.9194 107.87 29.2624 107.686 28.5989C107.502 27.9354 107.363 27.2587 107.27 26.5688C107.296 26.5036 107.315 26.432 107.328 26.3538C107.341 26.2756 107.347 26.204 107.347 26.1389C107.347 26.0868 107.334 26.0348 107.308 25.9828C107.294 25.9177 107.255 25.8787 107.19 25.8659C107.255 25.7616 107.294 25.6443 107.306 25.514C107.332 25.3707 107.345 25.2405 107.344 25.1233C107.344 24.8629 107.317 24.6481 107.264 24.479C107.342 24.4137 107.375 24.3094 107.361 24.1662C107.348 24.01 107.38 23.8992 107.458 23.8339C107.392 23.6127 107.359 23.398 107.358 23.1896C107.358 22.9032 107.389 22.6231 107.454 22.3495C107.531 22.0759 107.569 21.7958 107.568 21.5094C107.568 21.4443 107.562 21.3792 107.548 21.3141C107.548 21.249 107.541 21.1839 107.528 21.1188C107.593 20.9103 107.651 20.7018 107.702 20.4934C107.767 20.2718 107.799 20.0504 107.798 19.829C107.798 19.6728 107.771 19.5426 107.719 19.4386C107.886 18.8392 108.002 18.2464 108.065 17.6603C108.142 17.0611 108.212 16.4554 108.275 15.8433C108.262 15.8173 108.249 15.7978 108.236 15.7848C108.223 15.7718 108.216 15.7523 108.216 15.7263C108.216 15.6612 108.248 15.609 108.313 15.5697C108.391 15.5304 108.424 15.4587 108.41 15.3546C108.255 15.5113 108.125 15.694 108.021 15.9026C107.931 16.1112 107.84 16.3198 107.75 16.5284C107.672 16.7369 107.582 16.9455 107.478 17.1541C107.387 17.3497 107.264 17.5258 107.108 17.6825C107.096 17.8258 107.051 17.9626 106.973 18.0931C106.908 18.2234 106.876 18.3668 106.876 18.523C106.863 18.5231 106.85 18.5231 106.837 18.5231C106.824 18.5101 106.805 18.5037 106.779 18.5038C106.727 18.5039 106.688 18.5366 106.662 18.6017C106.649 18.6669 106.61 18.6865 106.545 18.6607C106.247 19.2475 105.917 19.8213 105.554 20.3822C105.204 20.9431 104.743 21.3936 104.171 21.7338C104.066 21.695 103.969 21.6758 103.878 21.676C103.708 21.6765 103.539 21.7291 103.37 21.8337C103.214 21.9253 103.11 21.9712 103.058 21.9713C102.928 21.9717 102.765 21.907 102.569 21.7774C102.386 21.6347 102.197 21.5571 102.002 21.5446C101.793 21.402 101.617 21.2592 101.474 21.1164C101.343 20.9605 101.141 20.8699 100.867 20.8447C100.684 20.5717 100.501 20.3118 100.318 20.065C100.148 19.818 99.9783 19.5776 99.8084 19.3437C99.6515 19.0968 99.5075 18.8368 99.3765 18.5637C99.2586 18.2906 99.1666 17.9849 99.1005 17.6465C99.1134 17.6204 99.1199 17.5944 99.1198 17.5683C99.1196 17.4902 99.0804 17.4578 99.0023 17.471C98.9373 17.4842 98.9046 17.4452 98.9044 17.3541L98.904 17.2174C98.9037 17.1132 98.8839 17.0221 98.8446 16.9441C98.8183 16.853 98.8115 16.7554 98.8242 16.6512C98.7327 16.5082 98.6607 16.3587 98.6081 16.2026C98.5556 16.0465 98.4641 15.91 98.3335 15.7932L98.333 15.6174C98.3328 15.5393 98.3261 15.4677 98.3129 15.4026C98.3127 15.3245 98.293 15.2595 98.2538 15.2075C98.2275 15.1425 98.1819 15.1035 98.1167 15.0907C98.1024 14.622 98.0034 14.147 97.8197 13.6657C97.6491 13.1714 97.4915 12.6966 97.347 12.2413C97.2437 12.5801 97.1666 12.9254 97.1155 13.2771C97.0644 13.6158 97.0393 13.9609 97.0403 14.3125L97.0412 14.6445C97.0415 14.7487 97.0548 14.8528 97.0812 14.9569C97.0423 15.0221 96.9838 15.0678 96.9058 15.0941C96.8408 15.1203 96.8018 15.1725 96.789 15.2507C96.7762 15.3158 96.7699 15.3809 96.7701 15.4461C96.7833 15.5111 96.7834 15.5762 96.7706 15.6414C96.7454 15.9539 96.7072 16.2535 96.656 16.5401C96.579 16.97 96.4891 17.4065 96.3862 17.8495C96.2833 18.2795 96.2324 18.7223 96.2337 19.178C96.2338 19.2041 96.2339 19.2432 96.234 19.2952C96.2472 19.3343 96.2538 19.3668 96.2538 19.3928C96.046 19.5757 95.936 19.8039 95.9237 20.0774C95.9115 20.3508 95.8797 20.6113 95.8283 20.8589C95.7642 21.2237 95.6871 21.5885 95.597 21.9533C95.5069 22.3051 95.4298 22.6699 95.3657 23.0477C95.3272 23.2561 95.2953 23.4646 95.2698 23.673C95.2443 23.8684 95.2189 24.0703 95.1934 24.2787C95.1807 24.3959 95.1354 24.4937 95.0575 24.572C94.9926 24.6503 94.9473 24.7416 94.9216 24.8458C94.9088 24.937 94.9026 25.0412 94.9029 25.1584C94.9162 25.2625 94.923 25.3602 94.9233 25.4513C94.9237 25.6076 94.9111 25.7573 94.8855 25.9006C94.8598 26.0309 94.782 26.1483 94.6521 26.2529C94.6791 26.5913 94.7385 26.8776 94.8303 27.1117C94.9221 27.3589 95.0271 27.632 95.1451 27.9312L95.6334 27.9298L95.6336 28.0079C95.634 28.1381 95.6538 28.2552 95.6932 28.3593C95.7456 28.4633 95.8434 28.5086 95.9866 28.4952C95.9737 28.5473 95.9674 28.6124 95.9676 28.6906C95.9679 28.8077 95.9877 28.9119 96.0271 29.0029C96.0794 29.1069 96.1188 29.2175 96.1452 29.3346C95.886 29.765 95.6069 30.0848 95.308 30.294C95.0091 30.5032 94.5993 30.6085 94.0785 30.61L93.766 30.6108C93.7003 30.4027 93.6216 30.2011 93.5299 30.006C93.4382 29.811 93.3465 29.6159 93.2548 29.4209C93.1761 29.2258 93.1039 29.0242 93.0382 28.816C92.9856 28.6208 92.959 28.4126 92.9583 28.1912C92.9582 28.1391 92.9646 28.087 92.9774 28.0349C92.9903 27.9958 92.9967 27.9502 92.9966 27.8982C92.9964 27.833 92.9702 27.7941 92.9181 27.7812C92.866 27.7683 92.8398 27.7033 92.8394 27.5861C92.8392 27.495 92.8324 27.4103 92.8192 27.3322C92.819 27.2541 92.8187 27.1695 92.8185 27.0783C92.8173 26.6487 92.8486 26.2254 92.9126 25.8085C92.9764 25.3787 93.0208 24.9489 93.0456 24.5191C93.1106 24.4538 93.1429 24.3691 93.1426 24.2649C93.1423 24.1607 93.1746 24.076 93.2395 24.0107L93.2391 23.874C93.2385 23.6396 93.2639 23.4052 93.3153 23.1707C93.3667 22.9362 93.4246 22.7081 93.4891 22.4866C93.5536 22.265 93.6116 22.037 93.663 21.8025C93.7144 21.568 93.7398 21.3335 93.7391 21.0992L93.7382 20.7867C93.738 20.6955 93.7769 20.6563 93.8551 20.6691C93.9462 20.6689 93.9982 20.6167 94.0109 20.5124C94.0364 20.3301 94.049 20.1543 94.0485 19.985C94.061 19.8027 94.08 19.6203 94.1055 19.438C94.1696 19.0862 94.2403 18.7345 94.3174 18.3827C94.3945 18.0179 94.4325 17.6532 94.4315 17.2886L94.4313 17.23C94.4312 17.1909 94.4635 17.1127 94.5283 16.9954C94.5931 16.865 94.6253 16.7412 94.6249 16.624C94.6247 16.5328 94.6049 16.4483 94.5656 16.3702C94.5787 16.3832 94.6047 16.3897 94.6438 16.3896C94.6959 16.3894 94.7284 16.3763 94.7413 16.3502C94.7673 16.3111 94.7997 16.2784 94.8387 16.2523C94.7995 16.2003 94.7798 16.1483 94.7797 16.0962C94.7795 16.0311 94.7859 15.9725 94.7987 15.9204C94.8246 15.8552 94.8374 15.79 94.8372 15.7249C94.837 15.6338 94.7912 15.5688 94.7 15.53C94.8554 15.2431 94.9652 14.9368 95.0294 14.6111C95.1066 14.2854 95.1578 13.9532 95.1828 13.6146C95.221 13.2759 95.2526 12.9373 95.2776 12.5987C95.3027 12.2471 95.3603 11.9149 95.4506 11.6021C95.4243 11.5241 95.4046 11.4395 95.3913 11.3484C95.391 11.2572 95.3908 11.1726 95.3906 11.0945C95.3904 11.0424 95.3838 10.9903 95.3706 10.9383C95.3574 10.8732 95.3638 10.8146 95.3896 10.7624C95.3896 10.7364 95.396 10.7038 95.4089 10.6647L95.4476 10.5474C95.4734 10.4562 95.4862 10.365 95.4859 10.2739C95.4987 10.1697 95.5114 10.0655 95.5241 9.96126C95.5493 9.66171 95.5549 9.3557 95.541 9.04324C95.5402 8.73074 95.5523 8.41821 95.5775 8.10564C95.5383 8.05366 95.4991 8.01471 95.4599 7.98878C95.4208 7.94983 95.3946 7.89782 95.3814 7.83275C95.485 7.65017 95.5952 7.48058 95.712 7.324C95.8417 7.15437 96.0106 7.02368 96.2187 6.93195C96.2582 7.07507 96.3625 7.14639 96.5318 7.14591C96.6099 7.14569 96.7075 7.12588 96.8246 7.08649C96.9417 7.0471 97.0196 6.99479 97.0585 6.92958C97.2801 7.00708 97.5016 7.04552 97.7229 7.04489C97.9573 7.03121 98.1722 7.08269 98.3679 7.19932C98.4075 7.39452 98.4602 7.5962 98.5258 7.80435C98.5915 8.0125 98.6832 8.20104 98.8009 8.36998C98.8274 8.53918 98.854 8.74744 98.8808 8.99476C98.9075 9.22906 98.9342 9.47638 98.961 9.73672C98.9877 9.98404 99.0275 10.2248 99.0802 10.459C99.1329 10.6803 99.205 10.8558 99.2965 10.9858C99.3102 11.2201 99.3499 11.4544 99.4157 11.6886C99.4815 11.9228 99.5537 12.1504 99.6325 12.3716C99.7112 12.5797 99.7769 12.7748 99.8295 12.9569C99.8951 13.139 99.928 13.2887 99.9284 13.4059C99.9287 13.51 99.9093 13.5817 99.8704 13.6209C99.8444 13.647 99.8185 13.6992 99.7927 13.7774C99.8452 13.9204 99.9172 14.0439 100.009 14.1478C100.1 14.2387 100.198 14.3491 100.302 14.479C100.5 15.2207 100.756 15.9426 101.07 16.6449C101.385 17.3471 101.764 18.0231 102.209 18.6729C102.326 18.6856 102.417 18.7179 102.483 18.7698C102.561 18.8217 102.678 18.8343 102.834 18.8079L102.835 18.9446C102.835 19.0748 102.861 19.1659 102.914 19.2178C103.031 19.2956 103.168 19.3343 103.324 19.3338C103.493 19.3333 103.623 19.2874 103.714 19.196C103.818 19.0915 103.915 18.9741 104.006 18.8436C104.097 18.7132 104.188 18.5892 104.279 18.4718C104.369 18.3543 104.493 18.2758 104.649 18.2363L104.649 18.1973C104.649 18.0931 104.668 18.0084 104.707 17.9432C104.759 17.8649 104.784 17.7802 104.784 17.6891C104.927 17.5845 105.037 17.454 105.115 17.2975C105.193 17.141 105.264 16.9846 105.329 16.8282C105.393 16.6587 105.464 16.5023 105.542 16.3588C105.633 16.2153 105.75 16.0978 105.893 16.0063C106.073 15.4458 106.293 14.9244 106.552 14.4419C106.811 13.9594 107.084 13.4703 107.369 12.9747C107.368 12.9357 107.362 12.8966 107.349 12.8576C107.336 12.8056 107.329 12.76 107.329 12.7209C107.329 12.7079 107.342 12.6493 107.367 12.545C107.432 12.4147 107.49 12.2908 107.542 12.1735C107.594 12.0561 107.639 11.9258 107.678 11.7824C107.807 11.3784 107.923 10.981 108.026 10.5901C108.142 10.1991 108.31 9.82753 108.531 9.47534L108.529 8.98707C108.762 8.51766 108.924 8.02241 109.013 7.50132C109.116 6.98019 109.238 6.47203 109.38 5.97684C109.406 5.83354 109.451 5.69018 109.516 5.54677C109.593 5.3903 109.684 5.27936 109.788 5.21397C109.749 5.13595 109.729 5.05788 109.729 4.97976C109.729 4.87559 109.741 4.78441 109.767 4.70621C109.806 4.61496 109.838 4.52372 109.864 4.4325C109.825 4.34146 109.805 4.22433 109.804 4.0811C109.804 3.89881 109.856 3.7294 109.959 3.57285C110.063 3.40329 110.219 3.29217 110.427 3.2395C110.557 3.2782 110.668 3.34299 110.76 3.43388C110.851 3.52476 110.936 3.62218 111.014 3.72613C111.106 3.81701 111.197 3.89488 111.288 3.95973C111.393 4.01152 111.523 4.02417 111.679 3.99769C111.784 4.19271 111.856 4.40084 111.896 4.62208C111.935 4.8303 111.956 5.04509 111.956 5.26644C111.957 5.56592 111.932 5.87849 111.881 6.20416C111.83 6.51681 111.811 6.83587 111.825 7.16135C111.721 7.36998 111.644 7.59806 111.592 7.84561C111.554 8.08009 111.516 8.32108 111.477 8.56859C111.439 8.81609 111.394 9.05711 111.343 9.29163C111.291 9.52615 111.201 9.74776 111.071 9.95646C111.034 10.5425 110.99 11.1155 110.939 11.6756C110.902 12.2356 110.838 12.7957 110.749 13.3558L110.576 14.4696C110.55 14.5608 110.524 14.6651 110.499 14.7823C110.473 14.8866 110.46 14.9777 110.46 15.0559C110.461 15.134 110.467 15.2186 110.481 15.3097C110.494 15.3878 110.533 15.4463 110.598 15.4852C110.508 15.6156 110.443 15.7721 110.404 15.9545C110.366 16.1369 110.327 16.3323 110.289 16.5407L110.193 17.1465C110.167 17.3419 110.116 17.5178 110.038 17.6742L110.039 17.8891C110.04 18.4099 109.951 18.944 109.77 19.4914L109.77 19.5891C109.77 19.6542 109.764 19.7128 109.751 19.7649C109.751 19.804 109.751 19.8561 109.751 19.9212C109.752 20.0123 109.778 20.0838 109.83 20.1358C109.727 20.4746 109.63 20.8265 109.54 21.1913C109.45 21.5431 109.386 21.9079 109.348 22.2856C109.31 22.7935 109.305 23.3144 109.333 23.8481C109.36 24.3689 109.297 24.8769 109.142 25.3721C109.221 25.6063 109.273 25.86 109.3 26.1334L109.381 26.9535C109.408 27.2268 109.447 27.4872 109.5 27.7344C109.566 27.9946 109.684 28.2091 109.853 28.3779C109.867 28.4039 109.873 28.443 109.873 28.4951C109.874 28.5992 109.848 28.6774 109.796 28.7297C109.822 28.8598 109.868 28.9703 109.934 29.0613C109.999 29.1523 110.064 29.2367 110.13 29.3147C110.195 29.4056 110.247 29.5031 110.287 29.6072C110.339 29.7112 110.365 29.8413 110.366 29.9976C110.47 30.1405 110.633 30.2507 110.855 30.3282C111.077 30.4057 111.298 30.4832 111.52 30.5607C111.754 30.6382 111.956 30.7353 112.126 30.852C112.296 30.9817 112.381 31.1638 112.382 31.3982ZM125.753 14.9932C125.675 15.1106 125.63 15.2409 125.618 15.3842C125.605 15.5275 125.599 15.6577 125.599 15.7749C125.6 15.9311 125.6 16.0874 125.601 16.2436C125.614 16.3868 125.621 16.53 125.621 16.6732L125.622 16.9662C125.596 17.0574 125.558 17.1487 125.506 17.24C125.454 17.3313 125.415 17.4225 125.389 17.5137C125.208 17.996 125.119 18.4781 125.12 18.9598L125.12 18.9989C125.055 19.1553 124.991 19.2987 124.926 19.4291C124.874 19.5595 124.823 19.6898 124.771 19.8202C124.719 19.9375 124.68 20.0678 124.655 20.2111C124.629 20.3414 124.623 20.4977 124.636 20.6799C124.455 21.1362 124.216 21.5535 123.917 21.932C123.619 22.2974 123.327 22.6758 123.042 23.0673C122.769 23.1722 122.515 23.3096 122.281 23.4796C122.06 23.6495 121.846 23.8389 121.638 24.0478C121.235 24.1791 120.838 24.33 120.448 24.5004C120.058 24.6707 119.707 24.8996 119.395 25.1869C119.148 25.2137 118.901 25.2534 118.653 25.3062C118.406 25.359 118.166 25.4378 117.931 25.5426L117.697 25.5433C117.58 25.5436 117.495 25.5178 117.443 25.4659C117.274 25.5575 117.098 25.6231 116.916 25.6627C116.734 25.6892 116.552 25.7028 116.369 25.7033C116.135 25.704 115.901 25.6916 115.666 25.6662C115.445 25.6278 115.217 25.5894 114.982 25.551C114.852 25.369 114.669 25.2328 114.434 25.1423C114.2 25.0388 113.991 24.9418 113.808 24.8511C113.429 24.3314 113.154 23.8308 112.984 23.3496C112.813 22.8552 112.636 22.3024 112.452 21.6909C112.477 21.5085 112.522 21.3326 112.587 21.1632C112.652 20.9807 112.677 20.7853 112.664 20.577C112.896 19.8993 113.2 19.2864 113.576 18.7385C113.965 18.1775 114.407 17.6424 114.9 17.1332C114.9 17.0551 114.913 16.9899 114.938 16.9378C114.977 16.8856 114.984 16.8074 114.957 16.7033C114.97 16.7163 114.996 16.7228 115.035 16.7226C115.14 16.7224 115.205 16.6961 115.231 16.644C115.256 16.5788 115.263 16.5072 115.249 16.4291C115.717 16.1283 116.14 15.782 116.516 15.3903C116.906 14.9986 117.347 14.6718 117.841 14.41C117.88 14.2927 117.945 14.1949 118.036 14.1165C118.127 14.0381 118.198 13.9468 118.25 13.8425C118.666 13.7241 119.043 13.5473 119.381 13.3119C119.719 13.0766 120.077 12.8673 120.454 12.6839C120.662 12.5661 120.857 12.4875 121.039 12.4479C121.234 12.3952 121.442 12.3426 121.664 12.2899C121.742 12.2636 121.813 12.2439 121.878 12.2307C121.943 12.2175 122.015 12.2107 122.093 12.2105C122.327 12.2099 122.555 12.2548 122.777 12.3453C122.999 12.4228 123.227 12.4612 123.461 12.4606C123.526 12.4604 123.578 12.4602 123.617 12.4601C123.669 12.447 123.721 12.4338 123.773 12.4206C123.995 12.6934 124.276 12.901 124.615 13.0433C124.694 13.2384 124.785 13.4074 124.89 13.5503C125.007 13.6932 125.125 13.8361 125.243 13.979C125.36 14.1089 125.465 14.2583 125.556 14.4273C125.661 14.5833 125.727 14.7719 125.753 14.9932ZM123.803 16.0143C123.803 15.9492 123.796 15.8906 123.783 15.8386C123.653 15.7999 123.529 15.7482 123.411 15.6834C123.294 15.6186 123.164 15.5864 123.021 15.5868C122.929 15.5871 122.838 15.6069 122.747 15.6462C122.734 15.5551 122.695 15.4901 122.63 15.4512C122.577 15.4123 122.512 15.3799 122.434 15.3541C122.369 15.3152 122.297 15.2894 122.219 15.2766C122.154 15.2507 122.095 15.2118 122.043 15.1599C122.003 15.0558 121.958 14.9518 121.905 14.8478C121.866 14.7307 121.787 14.6463 121.67 14.5945C121.553 14.7121 121.417 14.8101 121.261 14.8887C121.105 14.9542 120.942 15.0198 120.773 15.0854C120.617 15.1509 120.461 15.2295 120.305 15.3211C120.162 15.4126 120.039 15.5236 119.935 15.6541L119.583 15.6551C119.506 15.7986 119.395 15.9096 119.252 15.9881C119.109 16.0536 118.986 16.1516 118.882 16.2821C118.674 16.3869 118.479 16.5176 118.297 16.6744C118.128 16.8181 117.959 16.9748 117.791 17.1446C117.622 17.3013 117.453 17.4645 117.284 17.6343C117.128 17.804 116.96 17.9607 116.778 18.1045C116.609 18.4695 116.421 18.7891 116.214 19.0631C116.019 19.324 115.831 19.5915 115.65 19.8655C115.481 20.1394 115.332 20.4393 115.203 20.7652C115.087 21.078 115.029 21.4688 115.031 21.9375L115.031 22.1328C115.031 22.1979 115.038 22.263 115.051 22.3281C115.221 22.5099 115.358 22.7048 115.463 22.9129C115.581 23.1209 115.77 23.2701 116.031 23.3605C116.291 23.4639 116.565 23.5087 116.851 23.4949C117.151 23.481 117.437 23.5128 117.711 23.5901C118.336 23.4712 118.934 23.2807 119.506 23.0187C120.092 22.7436 120.644 22.4165 121.164 22.0374C121.242 21.9721 121.333 21.9067 121.437 21.8413C121.541 21.7629 121.625 21.6845 121.69 21.6062C121.755 21.5409 121.807 21.4692 121.846 21.391C121.897 21.3127 121.949 21.2409 122.001 21.1757C122.105 21.0061 122.222 20.8365 122.351 20.6669C122.481 20.4972 122.617 20.3406 122.76 20.197C122.824 19.9103 122.908 19.6366 123.012 19.3759C123.115 19.1022 123.219 18.835 123.322 18.5743C123.425 18.3136 123.509 18.0464 123.574 17.7728C123.651 17.4991 123.689 17.2126 123.688 16.9131C123.688 16.848 123.681 16.7764 123.668 16.6983C123.668 16.6202 123.661 16.5486 123.648 16.4835C123.752 16.34 123.803 16.1836 123.803 16.0143ZM139.948 13.4297C139.923 13.586 139.884 13.7228 139.832 13.8402C139.793 13.9444 139.787 14.0877 139.814 14.2699C139.684 14.2833 139.58 14.3292 139.502 14.4075C139.437 14.4728 139.378 14.5511 139.327 14.6424C139.288 14.7336 139.242 14.8314 139.191 14.9357C139.152 15.027 139.1 15.1118 139.035 15.1901C139.141 15.6585 139.201 16.1336 139.215 16.6154C139.229 17.0971 139.263 17.5723 139.317 18.0409C139.383 18.6396 139.483 19.2318 139.615 19.8174C139.759 20.3899 139.833 20.9756 139.834 21.5746C139.835 21.7569 139.829 21.9262 139.816 22.0824C139.817 22.2387 139.817 22.4014 139.818 22.5707C139.818 22.6749 139.818 22.7856 139.819 22.9027C139.832 23.0069 139.839 23.111 139.839 23.2152C139.84 23.5928 139.789 23.9705 139.686 24.3484C139.596 24.7263 139.525 25.1041 139.474 25.4819C139.318 25.6255 139.182 25.7822 139.065 25.9518C138.962 26.1213 138.852 26.2779 138.735 26.4214C138.618 26.565 138.482 26.6891 138.326 26.7937C138.17 26.9113 137.975 26.99 137.74 27.0297C137.702 27.16 137.624 27.2579 137.507 27.3233C137.403 27.3887 137.312 27.4801 137.234 27.5976L137.195 27.5977C136.87 27.5986 136.59 27.5538 136.355 27.4633C136.12 27.3728 135.899 27.2693 135.69 27.1527C135.494 27.0361 135.292 26.9129 135.083 26.7833C134.875 26.6537 134.634 26.5502 134.36 26.4728C133.994 26.1744 133.662 25.8498 133.361 25.4991C133.061 25.1354 132.721 24.8108 132.343 24.5254C132.251 24.2652 132.127 24.0508 131.97 23.8819C131.826 23.7131 131.682 23.5182 131.538 23.2972C131.473 23.2062 131.421 23.1218 131.381 23.0437C131.355 22.9657 131.316 22.8747 131.264 22.7706C131.224 22.6666 131.159 22.5951 131.068 22.5563C130.989 22.5175 130.918 22.4721 130.852 22.4202C130.747 22.0169 130.596 21.6462 130.4 21.3082C130.204 20.9702 129.975 20.6454 129.714 20.3336C129.636 20.477 129.571 20.6335 129.52 20.8029C129.481 20.9592 129.442 21.1221 129.404 21.2915C129.365 21.4479 129.314 21.6108 129.249 21.7802C129.197 21.9366 129.126 22.08 129.035 22.2105L129.036 22.2691C129.036 22.3342 129.062 22.3732 129.114 22.3861C129.166 22.3989 129.192 22.4379 129.192 22.503C129.192 22.5161 129.186 22.5291 129.173 22.5422C129.173 22.5552 129.173 22.5682 129.173 22.5812C129.108 22.6335 129.056 22.6987 129.017 22.777C128.992 22.8552 128.927 22.9009 128.823 22.9142C128.836 22.9793 128.842 23.0444 128.843 23.1095L128.843 23.2853C128.844 23.6629 128.8 24.0406 128.71 24.4185C128.633 24.7963 128.595 25.1805 128.596 25.5711L128.596 25.825C128.597 25.9162 128.603 26.0008 128.617 26.0789C128.643 26.1569 128.682 26.235 128.734 26.3129C128.787 26.3909 128.813 26.4625 128.813 26.5276C128.813 26.6187 128.775 26.7035 128.697 26.7818C128.788 26.8466 128.892 26.918 129.01 26.9958C129.127 27.0736 129.232 27.1579 129.323 27.2488C129.427 27.3527 129.512 27.4566 129.578 27.5606C129.643 27.6776 129.676 27.8012 129.677 27.9314C129.677 28.1527 129.606 28.3092 129.463 28.4007C129.32 28.4923 129.144 28.5644 128.936 28.6171C128.741 28.6697 128.533 28.7159 128.312 28.7555C128.103 28.8082 127.928 28.8934 127.785 29.0109L127.726 29.0111C127.57 29.0115 127.453 28.9663 127.374 28.8754C127.296 28.7845 127.179 28.7392 127.023 28.7397C126.774 28.3367 126.603 27.8815 126.511 27.3739C126.418 26.8794 126.371 26.4042 126.37 25.9485C126.369 25.3886 126.419 24.8286 126.522 24.2684C126.611 23.7082 126.727 23.1545 126.869 22.6073C126.997 22.06 127.139 21.5192 127.294 20.985C127.461 20.4376 127.616 19.8903 127.758 19.343L127.777 19.2844C127.777 19.2193 127.757 19.1737 127.718 19.1478C127.692 19.1218 127.679 19.0828 127.679 19.0307C127.679 19.0047 127.685 18.9917 127.698 18.9916C127.737 18.8613 127.776 18.7375 127.814 18.6202C127.866 18.5029 127.905 18.3725 127.93 18.2292C128.007 17.8644 128.059 17.4932 128.083 17.1155C128.121 16.7248 128.14 16.3406 128.139 15.963C128.151 15.5854 128.163 15.2077 128.175 14.8301C128.2 14.4394 128.244 14.0552 128.308 13.6774C128.412 13.5729 128.509 13.462 128.6 13.3445C128.691 13.2271 128.808 13.1226 128.951 13.031C129.211 13.0433 129.472 13.0816 129.732 13.146C129.993 13.2104 130.241 13.3138 130.476 13.4564C130.633 14.0159 130.739 14.5755 130.793 15.1352C130.859 15.6949 130.965 16.2545 131.11 16.814L131.11 16.8726C131.11 16.9377 131.143 16.9702 131.208 16.97C131.286 16.9567 131.345 16.9761 131.384 17.0281C131.358 17.0672 131.339 17.1128 131.326 17.165C131.326 17.217 131.326 17.2691 131.326 17.3212L131.327 17.6532C131.354 17.7573 131.386 17.8679 131.426 17.985C131.465 18.1021 131.55 18.1735 131.68 18.1991C131.747 18.6156 131.845 18.9994 131.977 19.3506C132.108 19.7018 132.258 20.04 132.429 20.365C132.599 20.69 132.782 21.015 132.978 21.34C133.174 21.652 133.377 21.9834 133.587 22.3344C133.913 22.5809 134.193 22.8665 134.429 23.1914C134.664 23.5032 134.899 23.8086 135.134 24.1074C135.383 24.3931 135.657 24.6463 135.957 24.8668C136.27 25.0872 136.674 25.2228 137.169 25.2735C137.234 25.2212 137.279 25.1495 137.305 25.0583L137.402 24.7846C137.441 24.6933 137.48 24.6151 137.519 24.5499C137.57 24.4716 137.642 24.4128 137.733 24.3735C137.758 24.0088 137.783 23.6377 137.808 23.26C137.846 22.8823 137.93 22.524 138.059 22.1851C137.993 22.068 137.96 21.9249 137.96 21.7556C137.96 21.6254 137.966 21.5017 137.978 21.3845C138.004 21.2672 138.017 21.15 138.016 21.0328C138.016 20.7854 137.963 20.5838 137.858 20.4278C137.858 20.3367 137.864 20.2455 137.877 20.1543C137.89 20.0501 137.929 19.9523 137.994 19.861C137.889 19.6009 137.803 19.3277 137.737 19.0414C137.685 18.7551 137.658 18.4622 137.657 18.1627C137.656 17.9935 137.675 17.8176 137.714 17.6352C137.635 17.4401 137.582 17.2124 137.556 16.9521L137.475 16.1515C137.449 15.8782 137.409 15.6244 137.356 15.3901C137.303 15.1559 137.205 14.9674 137.061 14.8246C137.139 14.7071 137.178 14.5703 137.177 14.4141C137.177 14.1537 137.137 13.9064 137.058 13.6722C136.979 13.4381 136.94 13.1908 136.939 12.9304C136.938 12.7481 136.977 12.5657 137.055 12.3832C137.341 12.3954 137.621 12.4271 137.895 12.4784C138.181 12.5167 138.461 12.5354 138.735 12.5347C138.813 12.6386 138.904 12.723 139.009 12.7878C139.113 12.8526 139.224 12.9174 139.341 12.9822C139.459 13.0339 139.57 13.0922 139.674 13.157C139.791 13.2218 139.883 13.3127 139.948 13.4297ZM152.263 23.7661C152.263 23.9874 152.205 24.1829 152.088 24.3525C151.985 24.5091 151.946 24.7045 151.973 24.9388C151.791 25.0435 151.641 25.1806 151.525 25.3502C151.408 25.5198 151.298 25.6959 151.194 25.8785C150.336 26.4408 149.413 26.8926 148.425 27.234C147.449 27.5883 146.44 27.7669 145.399 27.7698C145.334 27.77 145.275 27.7376 145.223 27.6727C145.17 27.6207 145.118 27.5623 145.066 27.4973C145.014 27.4324 144.955 27.3674 144.89 27.3025C144.837 27.2506 144.772 27.2247 144.694 27.2249C144.603 27.2252 144.531 27.2449 144.479 27.2841C144.479 27.2581 144.479 27.2321 144.479 27.206C144.492 27.193 144.499 27.1734 144.499 27.1474C144.498 26.9911 144.478 26.8284 144.439 26.6593C144.399 26.5031 144.379 26.3469 144.379 26.1907C144.378 26.0084 144.41 25.8586 144.475 25.7412L144.709 25.7405C144.84 25.7402 144.963 25.7333 145.08 25.7199C145.211 25.6935 145.347 25.6801 145.491 25.6797C145.634 25.6793 145.764 25.718 145.881 25.7958C146.598 25.7677 147.274 25.6356 147.912 25.3995C148.562 25.1502 149.219 24.9075 149.882 24.6712C149.986 24.5277 150.044 24.3713 150.057 24.202C150.082 24.0196 150.134 23.8502 150.212 23.6937C149.872 23.4082 149.526 23.1879 149.174 23.0326C148.835 22.8643 148.438 22.8068 147.983 22.8602C147.709 22.6917 147.415 22.5949 147.103 22.5697C146.803 22.5445 146.497 22.5063 146.185 22.4551C146.106 22.4423 146.022 22.4295 145.931 22.4167C145.852 22.3909 145.768 22.3781 145.677 22.3784C145.611 22.3786 145.546 22.3983 145.481 22.4375C145.429 22.4637 145.416 22.5093 145.443 22.5744C145.377 22.4704 145.286 22.4121 145.169 22.3994C145.065 22.3736 144.973 22.3218 144.895 22.2439C144.478 22.219 144.113 22.1484 143.801 22.0321C143.488 21.9028 143.142 21.7606 142.764 21.6054C142.66 21.5666 142.556 21.5409 142.451 21.5281C142.36 21.5023 142.269 21.4635 142.178 21.4117C141.943 21.2952 141.754 21.1395 141.61 20.9446C141.466 20.7497 141.355 20.5351 141.276 20.301C141.184 20.0538 141.118 19.8001 141.079 19.5398C141.039 19.2795 140.999 19.0387 140.959 18.8175C141.076 18.6088 141.186 18.3937 141.29 18.172C141.38 17.9504 141.458 17.7158 141.522 17.4682C141.6 17.4289 141.678 17.3962 141.756 17.3699C141.834 17.3437 141.919 17.3109 142.01 17.2715C141.997 17.2455 141.99 17.213 141.99 17.1739C141.99 17.1088 142.009 17.0437 142.048 16.9785C142.1 16.9132 142.113 16.8481 142.087 16.783C142.372 16.5218 142.645 16.2541 142.905 15.9799C143.177 15.6927 143.411 15.3796 143.605 15.0405C143.8 14.9748 143.956 14.8767 144.073 14.7462C144.19 14.6156 144.307 14.4851 144.423 14.3546C144.54 14.211 144.67 14.0869 144.813 13.9824C144.956 13.8648 145.138 13.7926 145.359 13.766C145.411 13.6747 145.482 13.6029 145.573 13.5505C145.664 13.4852 145.755 13.4263 145.846 13.374C145.937 13.3216 146.022 13.2628 146.1 13.1975C146.178 13.1322 146.236 13.0408 146.275 12.9236C146.483 12.923 146.672 12.8834 146.841 12.8048C147.023 12.7261 147.199 12.641 147.368 12.5494C147.537 12.4578 147.706 12.3726 147.875 12.294C148.057 12.2154 148.252 12.1758 148.46 12.1752C148.512 12.175 148.564 12.1814 148.617 12.1943C148.669 12.1941 148.727 12.2005 148.792 12.2133C148.884 12.3042 148.943 12.4147 148.969 12.5449C149.009 12.6619 149.035 12.7921 149.048 12.9353C149.062 13.0785 149.069 13.2217 149.069 13.3649C149.083 13.5081 149.109 13.6382 149.148 13.7553C149.032 13.977 148.902 14.1987 148.76 14.4205C148.63 14.6422 148.455 14.8119 148.234 14.9298L148.195 14.9299C148.103 14.9431 148.019 14.9238 147.941 14.872C147.862 14.8201 147.771 14.7943 147.667 14.7946C147.602 14.7948 147.55 14.8145 147.511 14.8537L147.413 14.9516C147.387 14.9777 147.348 15.0039 147.296 15.0301C147.257 15.0562 147.199 15.0564 147.121 15.0305C146.939 15.0962 146.867 15.207 146.907 15.3632C146.659 15.3899 146.451 15.4686 146.282 15.5993C146.113 15.717 145.958 15.8541 145.815 16.0108C145.672 16.1544 145.529 16.2916 145.386 16.4222C145.243 16.5398 145.074 16.6053 144.879 16.6189C144.659 17.0102 144.386 17.356 144.062 17.6564C143.75 17.9567 143.491 18.296 143.283 18.6742C143.323 18.7783 143.349 18.8889 143.362 19.006C143.376 19.1232 143.396 19.2468 143.422 19.3769C143.54 19.5329 143.677 19.6692 143.833 19.7859C144.003 19.9026 144.166 20.0194 144.323 20.1361L144.381 20.136C144.642 20.1352 144.883 20.1866 145.104 20.2902C145.326 20.3807 145.56 20.4256 145.808 20.4249C145.938 20.4245 146.049 20.3982 146.14 20.3458C146.478 20.423 146.811 20.4872 147.136 20.5383C147.475 20.5895 147.814 20.6276 148.152 20.6527C148.321 20.6782 148.491 20.6908 148.66 20.6903C148.842 20.6898 149.012 20.7088 149.168 20.7475C149.311 20.7861 149.455 20.8378 149.598 20.9025C149.742 20.9542 149.885 21.0124 150.028 21.0771C150.328 21.2064 150.609 21.3489 150.869 21.5044C151.143 21.6599 151.385 21.848 151.594 22.0687C151.803 22.2765 151.966 22.5234 152.084 22.8095C152.202 23.0827 152.261 23.4015 152.263 23.7661ZM169.207 13.6206C169.155 13.79 169.071 13.9465 168.954 14.09L168.623 14.5011C168.519 14.6316 168.429 14.7751 168.351 14.9316C168.286 15.075 168.267 15.2443 168.294 15.4396C168.268 15.4396 168.235 15.4397 168.196 15.4398C168.157 15.4269 168.124 15.4205 168.098 15.4206C167.89 15.4212 167.727 15.4737 167.611 15.5782C167.507 15.6696 167.364 15.7482 167.182 15.8138C167.155 15.7357 167.123 15.6642 167.083 15.5992C167.044 15.5212 166.985 15.4693 166.907 15.4435C166.595 15.5095 166.282 15.5624 165.97 15.6024C165.658 15.6293 165.345 15.6692 165.033 15.7222C164.89 15.7486 164.747 15.7881 164.603 15.8406C164.46 15.8801 164.311 15.9196 164.155 15.9591C164.077 15.9853 163.992 15.9986 163.901 15.9988C163.81 15.9861 163.718 15.9863 163.627 15.9996C163.315 16.0135 162.976 16.0405 162.612 16.0806C162.247 16.1077 161.922 16.2062 161.636 16.3763C161.506 16.3506 161.369 16.3315 161.226 16.3189C161.083 16.3063 160.939 16.3002 160.796 16.3006C160.484 16.3014 160.139 16.335 159.761 16.4011C159.397 16.4543 159.072 16.5658 158.786 16.7359C158.72 16.7101 158.649 16.6907 158.571 16.6779C158.506 16.6651 158.427 16.6588 158.336 16.6591C158.31 16.6591 158.291 16.6657 158.278 16.6788C158.265 16.6788 158.245 16.6789 158.219 16.6789C158.206 16.7962 158.22 16.9133 158.259 17.0304C158.312 17.1344 158.396 17.2188 158.514 17.2836C158.462 17.4269 158.436 17.5833 158.437 17.7525C158.438 17.9739 158.451 18.1952 158.478 18.4165C158.518 18.6377 158.538 18.859 158.538 19.0804C158.539 19.3278 158.507 19.5232 158.442 19.6666C158.574 20.0568 158.64 20.4733 158.641 20.916C158.642 21.0723 158.629 21.2286 158.603 21.3849C158.591 21.5282 158.585 21.6844 158.585 21.8537C158.586 21.9969 158.638 22.114 158.742 22.2048C158.847 22.2827 158.899 22.3932 158.9 22.5364C158.9 22.5885 158.887 22.6406 158.861 22.6928C159.043 22.6532 159.219 22.6006 159.388 22.535C159.557 22.4564 159.733 22.4169 159.915 22.4164C160.019 22.4161 160.117 22.4353 160.208 22.4741C160.312 22.5129 160.404 22.5647 160.482 22.6296C160.469 22.6947 160.456 22.7664 160.444 22.8446C160.444 22.9227 160.444 23.0008 160.444 23.0789C160.445 23.2222 160.445 23.3589 160.445 23.4891C160.459 23.6062 160.472 23.7364 160.486 23.8796C160.382 24.0622 160.259 24.2253 160.116 24.3689C159.986 24.5125 159.895 24.6951 159.844 24.9166C159.649 24.9171 159.473 24.9632 159.317 25.0548C159.174 25.1333 159.037 25.2248 158.908 25.3294C158.778 25.4209 158.648 25.5124 158.518 25.6039C158.388 25.6824 158.245 25.7219 158.088 25.7223C157.893 25.7229 157.756 25.6972 157.678 25.6453C157.6 25.5805 157.541 25.5155 157.502 25.4505C157.462 25.3855 157.423 25.327 157.384 25.2751C157.358 25.2231 157.293 25.2037 157.188 25.217C157.162 25.0478 157.109 24.8917 157.031 24.7487C156.952 24.5927 156.867 24.4432 156.776 24.3002C156.697 24.1572 156.612 24.0142 156.521 23.8713C156.442 23.7152 156.383 23.5591 156.344 23.403C156.264 23.0647 156.231 22.7132 156.243 22.3486C156.255 21.984 156.195 21.6326 156.064 21.2944C156.09 21.112 156.109 20.9297 156.121 20.7474C156.134 20.552 156.14 20.3632 156.139 20.1809C156.138 19.8163 156.124 19.4583 156.097 19.1068C156.083 18.7423 156.069 18.3712 156.055 17.9936C155.963 17.8767 155.904 17.7467 155.878 17.6035C155.864 17.4473 155.851 17.2976 155.838 17.1544C155.798 17.1154 155.753 17.0765 155.701 17.0376C155.661 16.9986 155.635 16.9466 155.622 16.8816C155.518 16.8558 155.44 16.843 155.388 16.8432C155.205 16.8437 155.049 16.8897 154.919 16.9812C154.802 17.0597 154.692 17.099 154.587 17.0993C154.483 17.0996 154.386 17.0869 154.294 17.0611C154.203 17.0353 154.112 17.0226 154.021 17.0228C153.943 17.023 153.897 17.0427 153.884 17.0818C153.884 17.1078 153.858 17.1339 153.806 17.1601C153.767 17.1863 153.676 17.2126 153.533 17.239C153.39 17.2655 153.227 17.292 153.045 17.3185C152.876 17.332 152.707 17.3455 152.537 17.359C152.381 17.3725 152.277 17.3793 152.225 17.3794C152.017 17.38 151.86 17.3414 151.756 17.2636C151.638 17.1728 151.501 17.0755 151.345 16.9718C151.371 16.8936 151.384 16.8414 151.384 16.8154C151.383 16.6852 151.344 16.5811 151.265 16.5032C151.187 16.4123 151.148 16.3343 151.148 16.2692C151.147 16.126 151.205 16.0151 151.322 15.9367C151.426 15.8582 151.485 15.7344 151.497 15.5651C151.796 15.434 152.102 15.3355 152.414 15.2695C152.727 15.2035 153.045 15.1506 153.371 15.1106C153.696 15.0706 154.015 15.0241 154.328 14.9712C154.653 14.9182 154.972 14.8326 155.284 14.7145C155.375 14.7273 155.46 14.7401 155.538 14.7529C155.629 14.7526 155.72 14.7524 155.811 14.7521C156.202 14.751 156.586 14.7109 156.963 14.6317C157.354 14.5394 157.751 14.4927 158.154 14.4916C158.258 14.4913 158.363 14.4975 158.467 14.5103C158.571 14.523 158.675 14.5422 158.78 14.568C159.3 14.4884 159.814 14.4023 160.322 14.3097C160.842 14.2171 161.376 14.1375 161.923 14.0708C162.183 14.044 162.437 14.0238 162.684 14.0101C162.945 13.9833 163.205 13.95 163.465 13.9102C163.556 13.8969 163.621 13.8772 163.66 13.8511C163.712 13.8119 163.738 13.7402 163.738 13.636C163.855 13.6878 163.985 13.7134 164.129 13.713C164.35 13.7124 164.565 13.6727 164.773 13.594C164.981 13.5153 165.196 13.4756 165.417 13.475C165.469 13.4749 165.515 13.4812 165.554 13.4942C165.593 13.494 165.632 13.4939 165.671 13.4938C165.762 13.4936 165.808 13.4544 165.807 13.3763C165.82 13.2851 165.885 13.2263 166.002 13.1999C166.093 13.1736 166.224 13.1537 166.393 13.1402C166.562 13.1267 166.738 13.1132 166.92 13.0997C167.115 13.0731 167.291 13.0465 167.447 13.0201C167.616 12.9805 167.74 12.9281 167.818 12.8628L167.954 12.6475C168.188 12.6599 168.358 12.7636 168.463 12.9586C168.58 13.1406 168.646 13.3422 168.66 13.5635C168.712 13.6155 168.783 13.6413 168.875 13.641C168.979 13.6277 169.07 13.621 169.148 13.6207L169.207 13.6206ZM178.836 13.7301L178.836 13.8082C178.745 13.8345 178.7 13.8998 178.7 14.0039C178.557 14.0695 178.407 14.122 178.251 14.1615C178.095 14.1879 177.945 14.2339 177.802 14.2994C177.659 14.2868 177.509 14.2807 177.353 14.2812C177.21 14.2686 177.067 14.2625 176.923 14.2629C176.533 14.264 176.142 14.2781 175.752 14.3052C175.361 14.3324 174.97 14.3335 174.58 14.3085C174.398 14.4132 174.196 14.4984 173.975 14.5642C173.767 14.6168 173.565 14.6434 173.37 14.644C173.213 14.6444 173.077 14.6253 172.959 14.5866C172.647 14.7437 172.303 14.8749 171.925 14.9801C171.561 15.0853 171.19 15.1905 170.813 15.2957C170.436 15.3879 170.071 15.4997 169.72 15.6309C169.382 15.749 169.083 15.9191 168.823 16.1412C168.798 16.3236 168.779 16.5059 168.766 16.6882C168.753 16.8575 168.747 17.0268 168.748 17.1961C168.748 17.3784 168.755 17.5476 168.769 17.7039C168.795 17.86 168.841 18.0162 168.907 18.1722C168.972 18.1981 169.044 18.2174 169.122 18.2302C169.213 18.243 169.291 18.2493 169.356 18.2491C169.421 18.2489 169.487 18.2422 169.552 18.229C169.617 18.2028 169.662 18.1571 169.688 18.0919C169.883 18.0653 170.079 18.0582 170.274 18.0707C170.469 18.0702 170.664 18.0696 170.86 18.0691C171.055 18.0685 171.244 18.0615 171.426 18.0479C171.621 18.0344 171.81 18.0013 171.992 17.9487C172.2 17.896 172.402 17.8629 172.597 17.8493C172.806 17.8357 173.008 17.8221 173.203 17.8085C173.398 17.795 173.6 17.7749 173.808 17.7482C174.016 17.7086 174.231 17.6364 174.452 17.5316C174.621 17.5962 174.791 17.6283 174.96 17.6278C175.142 17.6273 175.318 17.6398 175.488 17.6654C175.579 17.7302 175.651 17.8016 175.703 17.8796C175.768 17.9575 175.801 18.0486 175.801 18.1528C175.802 18.3351 175.737 18.5175 175.608 18.7002C175.478 18.8828 175.374 19.0524 175.297 19.2089L175.082 19.2095C174.769 19.2104 174.463 19.2568 174.164 19.3488C173.878 19.4277 173.585 19.5262 173.286 19.6442C173 19.7492 172.707 19.8477 172.408 19.9397C172.122 20.0186 171.822 20.0585 171.51 20.0594C171.458 20.0596 171.425 20.0922 171.413 20.1573C171.413 20.2094 171.4 20.2485 171.374 20.2746C171.309 20.2618 171.211 20.2556 171.081 20.2559C170.781 20.2568 170.495 20.2901 170.222 20.356C169.948 20.4219 169.669 20.4552 169.382 20.456C169.304 20.4563 169.226 20.4565 169.148 20.4567C169.07 20.4439 168.991 20.4311 168.913 20.4183C168.848 20.5227 168.764 20.5945 168.66 20.6339C168.556 20.6602 168.458 20.7126 168.367 20.7909C168.329 20.9082 168.303 21.0515 168.291 21.2208C168.291 21.3901 168.285 21.5659 168.272 21.7482C168.273 21.9175 168.26 22.0803 168.235 22.2366C168.209 22.393 168.157 22.5168 168.08 22.6082C168.093 22.6732 168.145 22.6991 168.236 22.6858C168.327 22.6595 168.373 22.6985 168.373 22.8026C168.373 22.9198 168.361 23.0436 168.335 23.1739C168.309 23.3041 168.297 23.4344 168.297 23.5646C168.298 23.812 168.325 24.0853 168.378 24.3847C168.444 24.6709 168.535 24.9376 168.653 25.1847C168.784 25.4317 168.954 25.6396 169.163 25.8082C169.372 25.9639 169.632 26.0413 169.945 26.0404C170.153 26.0398 170.348 26.0002 170.53 25.9216C170.712 25.8429 170.862 25.7123 170.978 25.5297L171.076 25.5099C171.128 25.5097 171.174 25.5161 171.213 25.529C171.265 25.5419 171.317 25.5483 171.369 25.5481C171.447 25.5479 171.545 25.502 171.662 25.4106C171.792 25.306 171.928 25.1885 172.071 25.0579C172.227 24.9272 172.383 24.8031 172.539 24.6854C172.694 24.5548 172.844 24.4632 172.987 24.4107C173.078 24.2282 173.162 24.0457 173.239 23.8631C173.33 23.6806 173.46 23.537 173.629 23.4324L173.627 22.866C173.757 22.7224 173.893 22.5918 174.036 22.4742C174.192 22.3565 174.309 22.2065 174.387 22.024C174.452 22.0498 174.51 22.0692 174.563 22.0821C174.628 22.0949 174.693 22.1012 174.758 22.101C174.823 22.1009 174.888 22.0942 174.953 22.081C175.031 22.0677 175.103 22.048 175.168 22.0218C175.272 22.1647 175.351 22.3272 175.404 22.5094C175.469 22.6785 175.548 22.841 175.639 22.997C175.523 23.2317 175.387 23.512 175.232 23.838C175.076 24.164 174.908 24.4899 174.726 24.816C174.545 25.142 174.351 25.4551 174.143 25.7551C173.949 26.0421 173.754 26.264 173.559 26.4208C173.52 26.46 173.436 26.5058 173.306 26.5583C173.163 26.6628 173.033 26.7609 172.916 26.8523C172.799 26.9568 172.689 27.0743 172.585 27.2048C172.208 27.3231 171.843 27.4804 171.492 27.6767C171.154 27.8729 170.816 28.0627 170.478 28.246C170.322 28.2073 170.153 28.1883 169.97 28.1888C169.814 28.1892 169.658 28.1962 169.502 28.2096C169.345 28.2361 169.176 28.2496 168.994 28.2501C168.942 28.1852 168.863 28.1398 168.759 28.1141C168.668 28.1013 168.635 28.0363 168.661 27.919C168.218 27.8943 167.86 27.7716 167.586 27.551C167.312 27.3434 167.077 27.0837 166.88 26.7717C166.697 26.4597 166.547 26.1216 166.428 25.7574C166.31 25.3931 166.185 25.0419 166.054 24.7037L166.054 24.6451C166.054 24.58 166.08 24.5409 166.132 24.5277C166.184 24.5146 166.21 24.4754 166.21 24.4103C166.21 24.3843 166.203 24.3648 166.19 24.3518C166.151 24.2087 166.118 24.0851 166.091 23.981C166.065 23.8769 166.052 23.7532 166.051 23.61C166.051 23.4017 166.063 23.1998 166.089 23.0044C166.114 22.796 166.126 22.5876 166.126 22.3793C166.125 22.171 166.099 21.9888 166.046 21.8326C166.098 21.7674 166.143 21.6826 166.182 21.5784C166.208 21.4611 166.227 21.3439 166.24 21.2266C166.252 21.1094 166.259 20.9922 166.258 20.875C166.271 20.7578 166.29 20.6536 166.316 20.5624C166.264 20.4193 166.218 20.2957 166.178 20.1916C166.139 20.0746 166.119 19.9379 166.119 19.7817L166.118 19.6449C166.248 19.4232 166.358 19.195 166.448 18.9604C166.539 18.7258 166.636 18.4846 166.739 18.2369L166.739 18.1783C166.738 17.8007 166.724 17.4232 166.697 17.0456C166.67 16.6681 166.656 16.2905 166.654 15.9129L166.653 15.5418C166.653 15.4116 166.659 15.2879 166.672 15.1707C166.776 15.1183 166.854 15.0465 166.906 14.9552C166.957 14.8639 167.035 14.7921 167.139 14.7397L167.784 14.7379L167.901 14.5422C167.939 14.477 167.965 14.4053 167.978 14.3272C168.121 14.2877 168.258 14.2352 168.388 14.1698C168.531 14.0912 168.661 14.0127 168.778 13.9343C168.96 13.8296 169.122 13.738 169.265 13.6595C169.421 13.5679 169.571 13.4958 169.714 13.4434C169.87 13.3778 170.033 13.3253 170.202 13.2857C170.371 13.2462 170.566 13.2131 170.787 13.1864C170.892 13.1861 170.957 13.1664 170.983 13.1273C171.022 13.0881 171.073 13.0424 171.138 12.9901C171.295 13.0157 171.451 13.0413 171.607 13.0669C171.764 13.0795 171.92 13.0856 172.076 13.0851C172.389 13.0842 172.681 13.0248 172.955 12.9069C173.345 12.9058 173.729 12.8982 174.107 12.8841C174.497 12.87 174.888 12.8624 175.279 12.8613C175.617 12.8603 175.956 12.8724 176.294 12.8974C176.633 12.9225 176.965 12.9672 177.291 13.0314C177.408 12.992 177.538 12.9721 177.681 12.9717C177.838 12.9712 177.994 12.9903 178.15 13.0289C178.32 13.0545 178.482 13.054 178.639 13.0276C178.652 13.1707 178.685 13.2944 178.737 13.3984C178.803 13.4893 178.835 13.5999 178.836 13.7301ZM202.904 22.6857C202.879 22.8811 202.808 23.031 202.691 23.1355C202.587 23.24 202.463 23.338 202.32 23.4295C202.255 23.4167 202.19 23.4104 202.125 23.4105C202.073 23.3977 202.014 23.3913 201.949 23.3915C201.545 23.3796 201.161 23.4328 200.797 23.551C200.446 23.6692 200.082 23.7549 199.704 23.808C199.574 23.8344 199.45 23.8478 199.333 23.8481C199.229 23.8354 199.118 23.8422 199.001 23.8686C198.585 23.9349 198.142 23.9882 197.674 24.0286C197.205 24.069 196.736 24.1224 196.268 24.1888C195.799 24.2422 195.337 24.3151 194.882 24.4076C194.439 24.4869 194.023 24.6053 193.633 24.7626C193.594 24.7367 193.554 24.7108 193.515 24.6848C193.476 24.6459 193.43 24.6265 193.378 24.6266C193.248 24.627 193.125 24.6469 193.007 24.6863C192.89 24.7257 192.773 24.739 192.656 24.7263C192.526 24.8048 192.383 24.8638 192.227 24.9033C192.084 24.9298 191.934 24.9562 191.778 24.9827C191.635 24.9961 191.491 25.0226 191.348 25.0621C191.205 25.1015 191.069 25.1735 190.939 25.2781C190.834 25.2263 190.704 25.2006 190.548 25.201C190.405 25.1884 190.307 25.1366 190.255 25.0456C189.955 25.1897 189.637 25.2817 189.298 25.3217C188.973 25.3617 188.641 25.3757 188.302 25.3636C188.081 25.3512 187.827 25.3194 187.54 25.2681C187.254 25.2168 186.967 25.146 186.68 25.0557C186.394 24.9523 186.126 24.8359 185.879 24.7064C185.631 24.5639 185.441 24.3951 185.311 24.2002C185.219 24.0702 185.154 23.9272 185.114 23.771C185.075 23.6149 184.983 23.498 184.84 23.4203C184.878 23.1207 184.923 22.8276 184.974 22.541C185.025 22.2544 185.077 21.9612 185.128 21.6616C185.388 21.4395 185.634 21.2045 185.868 20.9564C186.102 20.7083 186.322 20.4473 186.53 20.1733C186.777 20.0554 187.004 19.9115 187.212 19.7417C187.433 19.5718 187.647 19.4019 187.855 19.232C188.076 19.0491 188.291 18.8727 188.498 18.7029C188.719 18.533 188.953 18.3826 189.2 18.2517C189.239 18.1604 189.291 18.0887 189.356 18.0364C189.434 17.9711 189.512 17.9123 189.59 17.86C189.668 17.7946 189.739 17.7293 189.804 17.664C189.869 17.5857 189.914 17.4945 189.94 17.3902C190.395 17.1155 190.791 16.7693 191.128 16.3517C191.466 15.9341 191.686 15.4647 191.789 14.9436C191.567 14.7619 191.312 14.6454 191.026 14.5942C190.752 14.5298 190.466 14.4851 190.166 14.4599C189.906 14.4476 189.632 14.4484 189.346 14.4622C189.072 14.476 188.792 14.4703 188.506 14.445C188.22 14.537 187.92 14.5964 187.608 14.6233C187.309 14.6502 187.009 14.6771 186.71 14.704C186.41 14.7179 186.111 14.7578 185.812 14.8237C185.525 14.8766 185.246 14.9816 184.973 15.1386C184.921 15.1387 184.868 15.1324 184.816 15.1195C184.777 15.1066 184.732 15.1002 184.68 15.1004C184.263 15.0885 183.873 15.1743 183.508 15.3576C183.144 15.5279 182.787 15.6982 182.436 15.8684C182.41 15.9206 182.397 15.9597 182.397 15.9857C182.397 16.0638 182.41 16.1419 182.437 16.22C182.476 16.285 182.496 16.3565 182.496 16.4347C182.483 16.4477 182.476 16.4607 182.476 16.4738C182.476 16.4868 182.47 16.4998 182.457 16.5129C182.444 16.578 182.425 16.6367 182.399 16.6888C182.386 16.741 182.367 16.7996 182.341 16.8648C182.199 17.2818 182.122 17.6922 182.11 18.0959C182.098 18.4345 182.099 18.7665 182.113 19.092C182.127 19.4175 182.128 19.7495 182.116 20.0881C182.091 20.5048 182.027 20.8956 181.924 21.2605C181.99 21.5728 182.049 21.9047 182.102 22.2561C182.155 22.5945 182.221 22.9328 182.3 23.2712C182.379 23.6095 182.471 23.9413 182.577 24.2665C182.695 24.5787 182.845 24.8777 183.028 25.1637C183.015 25.1897 183.022 25.2092 183.048 25.2222C183.074 25.2351 183.1 25.2416 183.126 25.2415L183.282 25.2411C183.348 25.2409 183.374 25.2668 183.361 25.319C183.387 25.358 183.407 25.397 183.42 25.436C183.433 25.462 183.459 25.488 183.498 25.5139C183.524 25.5529 183.524 25.605 183.498 25.6701C183.486 25.9306 183.422 26.1717 183.305 26.3933C183.189 26.615 183.118 26.8561 183.092 27.1166C182.936 27.1561 182.793 27.176 182.663 27.1764C182.441 27.164 182.246 27.0995 182.076 26.9828C181.907 26.8791 181.75 26.7493 181.607 26.5935C181.463 26.4376 181.326 26.2817 181.195 26.1259C181.064 25.957 180.921 25.8141 180.764 25.6974C180.672 25.3331 180.58 24.9297 180.487 24.4872C180.408 24.0447 180.27 23.6675 180.074 23.3556C180.126 23.2382 180.151 23.0949 180.151 22.9257C180.163 22.6652 180.136 22.4114 180.071 22.1642C180.018 21.9039 180.004 21.6435 180.029 21.383C180.029 21.2398 180.042 21.0965 180.067 20.9532C180.106 20.8099 180.131 20.6666 180.144 20.5233C180.156 20.3019 180.13 20.0872 180.064 19.879C180.011 19.6708 179.991 19.4561 180.004 19.2347C180.016 19.1305 180.036 19.0327 180.062 18.9415C180.1 18.8373 180.152 18.746 180.217 18.6677C180.151 18.5116 180.131 18.3619 180.157 18.2186C180.17 17.9972 180.195 17.7888 180.233 17.5934C180.272 17.398 180.297 17.2026 180.31 17.0072C180.31 16.9031 180.303 16.8054 180.29 16.7143C180.276 16.6102 180.256 16.5126 180.23 16.4215L180.054 16.3634C179.976 16.3636 179.898 16.3834 179.82 16.4227C179.755 16.4619 179.697 16.5077 179.645 16.5599C179.593 16.6121 179.547 16.6578 179.508 16.697C179.469 16.7231 179.43 16.7363 179.391 16.7364C179.365 16.7365 179.333 16.7365 179.294 16.7367C179.267 16.7237 179.241 16.7173 179.215 16.7173C179.189 16.7174 179.137 16.7436 179.059 16.7959C178.994 16.8482 178.91 16.907 178.806 16.9724C178.715 17.0247 178.624 17.0836 178.533 17.149C178.442 17.2013 178.37 17.2341 178.318 17.2472C178.175 17.2216 178.058 17.1763 177.966 17.1115C177.888 17.0336 177.81 16.9622 177.732 16.8973C177.666 16.8194 177.594 16.7545 177.516 16.7026C177.438 16.6377 177.34 16.612 177.223 16.6253C177.184 16.5473 177.164 16.4627 177.164 16.3716C177.15 16.2805 177.15 16.1893 177.163 16.0981L177.162 15.7856C177.253 15.6161 177.376 15.479 177.532 15.3744C177.675 15.2568 177.831 15.1587 178 15.0801L178.507 14.8443C178.676 14.7657 178.832 14.6676 178.975 14.55L179.151 14.5496C179.385 14.5619 179.587 14.5158 179.756 14.4111C179.938 14.3064 180.107 14.1888 180.263 14.0581C180.418 13.9145 180.574 13.7708 180.73 13.6271C180.899 13.4834 181.081 13.3722 181.276 13.2935C181.419 13.3582 181.569 13.4164 181.726 13.4681C181.882 13.5067 182.045 13.5323 182.214 13.5448C182.384 13.5443 182.559 13.5178 182.741 13.4652C182.924 13.4126 183.066 13.3145 183.17 13.171C183.235 13.1969 183.288 13.2163 183.327 13.2292C183.379 13.229 183.437 13.2289 183.502 13.2287C183.698 13.2411 183.893 13.2146 184.088 13.1489C184.283 13.0702 184.472 12.9785 184.654 12.8739C184.914 12.8861 185.168 12.8724 185.415 12.8327C185.676 12.7798 185.929 12.727 186.177 12.6743C186.437 12.6214 186.691 12.5751 186.938 12.5354C187.198 12.4826 187.459 12.4623 187.719 12.4746C188.149 12.4864 188.572 12.4461 188.988 12.3538C189.405 12.2615 189.828 12.2278 190.258 12.2526C190.557 12.2648 190.85 12.29 191.137 12.3282C191.436 12.3534 191.736 12.3591 192.035 12.3452C192.205 12.4229 192.355 12.4941 192.485 12.5588C192.628 12.6105 192.804 12.623 193.012 12.5964C193.43 12.9468 193.809 13.3558 194.149 13.8236L194.15 14.1557C194.137 14.4552 194.086 14.7483 193.996 15.035C193.906 15.3217 193.796 15.6085 193.666 15.8953C193.55 16.1691 193.42 16.4429 193.278 16.7167C193.135 16.9776 192.999 17.2384 192.87 17.4991C192.026 18.2698 191.182 19.0339 190.337 19.7914C189.493 20.549 188.623 21.2807 187.726 21.9863C187.701 22.1166 187.662 22.2339 187.61 22.3382C187.571 22.4425 187.546 22.5532 187.533 22.6705C187.533 22.7356 187.54 22.7876 187.553 22.8267C187.644 22.8524 187.722 22.9043 187.788 22.9822C187.866 23.0471 187.892 23.1382 187.867 23.2555L188.042 23.255C188.108 23.2548 188.14 23.2807 188.14 23.3328L188.453 23.3515C188.948 23.3761 189.443 23.3617 189.937 23.3082C190.432 23.2547 190.926 23.1947 191.421 23.1282C191.929 23.0617 192.43 23.0017 192.924 22.9482C193.419 22.8817 193.914 22.8413 194.408 22.8268C194.526 22.7875 194.649 22.7546 194.779 22.7281C194.909 22.7017 195.026 22.6493 195.13 22.5709L195.189 22.5707C195.28 22.5705 195.345 22.5963 195.385 22.6483C195.437 22.7002 195.508 22.7326 195.6 22.7454C195.665 22.7452 195.73 22.732 195.795 22.7057C195.873 22.6795 195.951 22.6597 196.029 22.6465C196.211 22.5939 196.4 22.5608 196.595 22.5472C196.803 22.5336 197.005 22.5135 197.2 22.4869C197.956 22.4197 198.704 22.3785 199.446 22.3634C200.188 22.3353 200.93 22.2355 201.672 22.0642C201.737 22.1551 201.829 22.22 201.946 22.2587C202.063 22.2844 202.187 22.3166 202.317 22.3553C202.448 22.381 202.565 22.4132 202.669 22.452C202.786 22.4907 202.865 22.5686 202.904 22.6857Z" fill="black"/>
</g>
<defs>
<clipPath id="clip0_5_3">
<rect width="220" height="153" fill="white"/>
</clipPath>
</defs>
</svg>
